<svg width="522" height="92" viewBox="0 0 522 92" fill="none" xmlns="http://www.w3.org/2000/svg">
  <path d="M56.6406 5.625C56.6406 6 56.5 6.32812 56.2188 6.60938C55.9375 6.85937 55.5938 7.07812 55.1875 7.26562C54.8125 7.45312 54.4219 7.625 54.0156 7.78125C53.6094 7.9375 53.2656 8.07812 52.9844 8.20312C52.7344 8.32813 52.5156 8.46875 52.3281 8.625C52.1719 8.78125 52 8.95312 51.8125 9.14062C51.6562 9.29687 51.4688 9.4375 51.25 9.5625C51.0625 9.6875 50.8125 9.79688 50.5 9.89062C50.0938 9.98438 49.7344 10.0312 49.4219 10.0312C49.1094 10.0312 48.8125 10.0625 48.5312 10.125C48.25 10.1563 48 10.2656 47.7812 10.4531C47.5625 10.6406 47.3438 10.9688 47.125 11.4375C46.9375 11.8438 46.7969 12.3281 46.7031 12.8906C46.6406 13.4219 46.5312 13.9375 46.375 14.4375C46.2188 14.9375 45.9844 15.3594 45.6719 15.7031C45.3906 16.0469 44.9375 16.2188 44.3125 16.2188C44.3125 16.5625 44.4219 16.9219 44.6406 17.2969C44.8906 17.6406 45.1406 17.9844 45.3906 18.3281C45.6719 18.6719 45.9219 19.0312 46.1406 19.4062C46.3594 19.75 46.4688 20.0938 46.4688 20.4375C46.4688 20.8125 46.3906 21.1719 46.2344 21.5156C46.0781 21.8594 46 22.2188 46 22.5938L45.9531 25.4531C45.9219 26.0781 46.0312 26.7031 46.2812 27.3281C46.5625 27.9219 46.7031 28.5469 46.7031 29.2031C46.7031 29.5781 46.625 29.9531 46.4688 30.3281C46.3125 30.6719 46.2344 31.0469 46.2344 31.4531C46.2344 32.7656 46.3594 34.0781 46.6094 35.3906C46.8906 36.6719 47.0312 38 47.0312 39.375C47.0312 40.2812 46.9531 41.2656 46.7969 42.3281C46.6406 43.3594 46.2656 44.2344 45.6719 44.9531C45.7031 45.3906 45.7969 45.7656 45.9531 46.0781C46.1094 46.3594 46.2656 46.6719 46.4219 47.0156C46.5781 47.3281 46.7188 47.6875 46.8438 48.0938C47 48.4688 47.0781 48.9688 47.0781 49.5938C47.0781 50.1562 47.0156 50.9062 46.8906 51.8438C46.7969 52.75 46.6094 53.6406 46.3281 54.5156C46.0469 55.3594 45.6562 56.1094 45.1562 56.7656C44.6875 57.3906 44.0781 57.7031 43.3281 57.7031C43.2656 57.7031 43.2031 57.7031 43.1406 57.7031C43.1094 57.6719 43.0625 57.6562 43 57.6562L42.9531 57.9375V58.0781C42.9531 58.5156 43.0781 58.9062 43.3281 59.25C43.6094 59.5938 43.75 59.9844 43.75 60.4219C43.75 60.6406 43.6094 60.9219 43.3281 61.2656C43.0781 61.6094 42.7656 61.9688 42.3906 62.3438C42.0156 62.7188 41.625 63.0781 41.2188 63.4219C40.8438 63.7656 40.5312 64.0625 40.2812 64.3125C40 64.5938 39.7812 64.875 39.625 65.1562C39.5 65.4062 39.3594 65.6406 39.2031 65.8594C39.0781 66.0469 38.8906 66.2188 38.6406 66.375C38.4219 66.5 38.0781 66.6094 37.6094 66.7031C36.7969 66.8594 36.0781 67.0938 35.4531 67.4062C34.8281 67.7188 34.2188 68.0469 33.625 68.3906C33.0312 68.7031 32.3906 68.9688 31.7031 69.1875C31.0156 69.4375 30.1875 69.5625 29.2188 69.5625C28.6875 69.5625 28.1719 69.5 27.6719 69.375C27.1719 69.25 26.6719 69.1094 26.1719 68.9531C25.6719 68.7656 25.1562 68.6094 24.625 68.4844C24.125 68.3594 23.625 68.2969 23.125 68.2969C22.7188 68.2969 22.3125 68.3281 21.9062 68.3906C21.5312 68.4219 21.1406 68.4375 20.7344 68.4375C20.4219 68.4375 20.1719 68.4219 19.9844 68.3906C19.8281 68.3594 19.6406 68.2344 19.4219 68.0156C19.2656 67.8281 19.0156 67.6562 18.6719 67.5C18.3594 67.3438 18.0156 67.2031 17.6406 67.0781C17.2656 66.9219 16.8906 66.7969 16.5156 66.7031C16.1406 66.5781 15.8281 66.4844 15.5781 66.4219C15.0156 66.2656 14.4688 65.9531 13.9375 65.4844C13.4375 65.0156 12.9688 64.4844 12.5312 63.8906C12.125 63.2656 11.75 62.625 11.4062 61.9688C11.0938 61.3125 10.8438 60.7188 10.6562 60.1875C10.2812 59.125 10.0156 58.0469 9.85938 56.9531C9.70312 55.8281 9.57812 54.7188 9.48438 53.625C9.39062 52.5 9.28125 51.3906 9.15625 50.2969C9.0625 49.1719 8.875 48.0625 8.59375 46.9688C8.46875 46.5312 8.32812 46.0938 8.17188 45.6562C8.04688 45.1875 7.98438 44.7188 7.98438 44.25C7.98438 43.9062 8.01562 43.5781 8.07812 43.2656C8.14062 42.9219 8.20312 42.5781 8.26562 42.2344C8.51562 40.9219 8.70312 39.5938 8.82812 38.25C8.98438 36.9062 9.0625 35.5625 9.0625 34.2188C9.0625 32.4375 8.96875 30.6719 8.78125 28.9219C8.625 27.1719 8.54688 25.4062 8.54688 23.625C8.54688 23.2812 8.54688 22.9531 8.54688 22.6406C8.54688 22.3281 8.5625 22 8.59375 21.6562C8.65625 21.0312 8.78125 20.4219 8.96875 19.8281C9.1875 19.2344 9.29688 18.625 9.29688 18C9.29688 17.7812 9.26562 17.5781 9.20312 17.3906C9.14062 17.2031 9.07812 17 9.01562 16.7812C8.64062 15.9688 8.42188 15.2344 8.35938 14.5781C8.29688 13.8906 8.23438 13.1094 8.17188 12.2344C8.04688 10.8906 7.76562 9.9375 7.32812 9.375C6.92188 8.8125 6.39062 8.40625 5.73438 8.15625C5.10938 7.90625 4.40625 7.70312 3.625 7.54688C2.875 7.35938 2.07812 6.95312 1.23438 6.32812C0.984375 6.17188 0.765625 5.98438 0.578125 5.76562C0.421875 5.51563 0.34375 5.25 0.34375 4.96875C0.34375 4.46875 0.609375 4.01563 1.14062 3.60938C1.70312 3.20312 2.35938 2.875 3.10938 2.625C3.85938 2.375 4.60938 2.1875 5.35938 2.0625C6.10938 1.90625 6.6875 1.82812 7.09375 1.82812C7.59375 1.82812 8.0625 1.89062 8.5 2.01562C8.96875 2.14063 9.45312 2.20312 9.95312 2.20312C10.9531 2.20312 11.9219 2.09375 12.8594 1.875C13.7969 1.625 14.7656 1.5 15.7656 1.5C16.1719 1.5 16.7969 1.57813 17.6406 1.73438C18.4844 1.89062 19.3281 2.125 20.1719 2.4375C21.0156 2.71875 21.75 3.07813 22.375 3.51562C23.0312 3.92188 23.3594 4.39063 23.3594 4.92188C23.3594 5.60938 23.1406 6.26563 22.7031 6.89062C22.2969 7.48438 21.7812 8.0625 21.1562 8.625C20.5312 9.1875 19.8438 9.76562 19.0938 10.3594C18.375 10.9531 17.7031 11.5937 17.0781 12.2812C16.4531 12.9688 15.9219 13.75 15.4844 14.625C15.0781 15.4688 14.875 16.4219 14.875 17.4844C14.875 18.1094 14.8906 18.75 14.9219 19.4062C14.9844 20.0312 15.0156 20.6563 15.0156 21.2812C15.0156 22.5312 14.8906 23.7656 14.6406 24.9844C14.4219 26.2031 14.3125 27.4531 14.3125 28.7344C14.3125 29.7656 14.4531 30.7031 14.7344 31.5469C15.0469 32.3594 15.2031 33 15.2031 33.4688C15.2031 33.9688 15.1406 34.4375 15.0156 34.875C14.9219 35.2812 14.875 35.7188 14.875 36.1875C14.875 36.4062 14.875 36.6094 14.875 36.7969C14.9062 36.9844 14.9219 37.1875 14.9219 37.4062C14.9219 37.9062 14.8438 38.3125 14.6875 38.625C14.5625 38.9375 14.4219 39.2188 14.2656 39.4688C14.1094 39.7188 13.9531 39.9531 13.7969 40.1719C13.6406 40.3906 13.5625 40.6406 13.5625 40.9219C13.7188 40.7969 13.875 40.6875 14.0312 40.5938C14.1875 40.5 14.3594 40.4531 14.5469 40.4531C14.7656 40.4531 14.9375 40.5312 15.0625 40.6875C15.1875 40.8438 15.2812 41.0312 15.3438 41.25C15.4375 41.4375 15.5 41.6562 15.5312 41.9062C15.5625 42.125 15.5781 42.3125 15.5781 42.4688C15.5781 43.2812 15.6875 44.0781 15.9062 44.8594C16.1562 45.6406 16.2812 46.4375 16.2812 47.25C16.2812 47.9688 16.2188 48.7031 16.0938 49.4531C15.9688 50.1719 15.9062 50.9062 15.9062 51.6562C15.9062 52.375 15.9531 53.0469 16.0469 53.6719C16.1719 54.2656 16.5938 54.75 17.3125 55.125C17.4375 55.1875 17.5781 55.375 17.7344 55.6875C17.8906 56 18.0469 56.3438 18.2031 56.7188C18.3906 57.0625 18.5781 57.4219 18.7656 57.7969C18.9531 58.1406 19.1406 58.3906 19.3281 58.5469C19.7031 58.8906 20.1094 59.1719 20.5469 59.3906C20.9844 59.6094 21.4219 59.8281 21.8594 60.0469C22.3281 60.2344 22.7656 60.4531 23.1719 60.7031C23.6094 60.9219 24 61.2344 24.3438 61.6406C24.625 61.9844 24.9844 62.2969 25.4219 62.5781C25.8594 62.8281 26.2812 63.1094 26.6875 63.4219C27.125 63.7031 27.5 64.0156 27.8125 64.3594C28.125 64.7031 28.2812 65.125 28.2812 65.625C28.2812 65.2188 28.3438 64.8906 28.4688 64.6406C28.5 64.7344 28.5156 64.875 28.5156 65.0625C28.5156 65.3125 28.4531 65.5 28.3281 65.625C28.4219 65.5312 28.5312 65.375 28.6562 65.1562C28.7812 64.9375 28.9062 64.7188 29.0312 64.5C29.1562 64.2812 29.2812 64.0938 29.4062 63.9375C29.5312 63.7812 29.6719 63.7031 29.8281 63.7031C30.0469 63.7031 30.25 63.7812 30.4375 63.9375C30.625 64.0938 30.7188 64.2969 30.7188 64.5469C30.7188 64.8594 30.6562 65.1562 30.5312 65.4375C30.4062 65.7188 30.3281 66.0156 30.2969 66.3281C30.6094 66.3281 30.9219 66.2656 31.2344 66.1406C31.5781 65.9844 31.8906 65.7969 32.1719 65.5781C32.4531 65.3594 32.6719 65.1094 32.8281 64.8281C33.0156 64.5156 33.1094 64.1875 33.1094 63.8438C33.1094 63.4375 32.9844 63.1875 32.7344 63.0938C32.5156 62.9688 32.2344 62.9062 31.8906 62.9062C31.6406 62.9062 31.3906 62.9219 31.1406 62.9531C30.9219 62.9844 30.6875 63 30.4375 63H30.2969C30.4531 62.5312 30.6875 62.1406 31 61.8281C31.3125 61.5156 31.6719 61.2656 32.0781 61.0781C32.4844 60.8594 32.9062 60.6875 33.3438 60.5625C33.7812 60.4062 34.2031 60.25 34.6094 60.0938C35.2656 59.8438 35.7969 59.5156 36.2031 59.1094C36.6094 58.6719 36.9844 58.2188 37.3281 57.75C37.6719 57.2812 38.0156 56.8125 38.3594 56.3438C38.7031 55.8438 39.125 55.3906 39.625 54.9844C39.6562 54.7656 39.6719 54.5625 39.6719 54.375C39.6719 54.1875 39.6719 54 39.6719 53.8125C39.6719 53.1562 39.6406 52.5156 39.5781 51.8906C39.5469 51.2344 39.5312 50.5781 39.5312 49.9219C39.5312 49.2031 39.625 48.4844 39.8125 47.7656C40.0312 47.0469 40.1406 46.3281 40.1406 45.6094C40.1406 44.9844 40.0625 44.3906 39.9062 43.8281C39.75 43.2344 39.6719 42.625 39.6719 42C39.6719 41.4375 39.75 40.8906 39.9062 40.3594C40.0625 39.7969 40.1406 39.2344 40.1406 38.6719C40.1406 37.7656 40.0625 36.8906 39.9062 36.0469C39.75 35.1719 39.6719 34.2969 39.6719 33.4219C39.6719 32.2344 39.7656 31.0781 39.9531 29.9531C40.1719 28.8281 40.2812 27.6875 40.2812 26.5312C40.2812 25.0312 40.1406 23.5625 39.8594 22.125C39.6094 20.6875 39.4844 19.2188 39.4844 17.7188C39.4844 17.5 39.4844 17.2187 39.4844 16.875C39.5156 16.5 39.5625 16.1406 39.625 15.7969C39.7188 15.4219 39.8438 15.1094 40 14.8594C40.1562 14.5781 40.3906 14.4375 40.7031 14.4375C40.4219 14.4062 40.0625 14.2187 39.625 13.875C39.2188 13.5 38.8125 13.0937 38.4062 12.6562C38.0312 12.1875 37.6875 11.7344 37.375 11.2969C37.0938 10.8281 36.9531 10.4687 36.9531 10.2188C36.7969 10.25 36.6406 10.2812 36.4844 10.3125C36.3594 10.3125 36.2188 10.3125 36.0625 10.3125C35.625 10.3125 35.2031 10.2344 34.7969 10.0781C34.4219 9.92188 34.0469 9.76562 33.6719 9.60938C33.2969 9.42188 32.9062 9.25 32.5 9.09375C32.0938 8.9375 31.6562 8.85938 31.1875 8.85938H30.9531C30.8281 8.07812 30.625 7.32812 30.3438 6.60938C30.0938 5.89063 29.9688 5.125 29.9688 4.3125C29.9688 3.6875 30.125 3.1875 30.4375 2.8125C30.7812 2.4375 31.2031 2.15625 31.7031 1.96875C32.2031 1.75 32.7344 1.60937 33.2969 1.54688C33.8906 1.48438 34.4219 1.45312 34.8906 1.45312C35.7656 1.45312 36.625 1.5 37.4688 1.59375C38.3125 1.6875 39.1719 1.73438 40.0469 1.73438C40.7031 1.73438 41.3125 1.59375 41.875 1.3125C42.4375 1 43.0312 0.84375 43.6562 0.84375C44 0.84375 44.3594 0.921875 44.7344 1.07812C45.1094 1.20313 45.4844 1.35938 45.8594 1.54688C46.2656 1.73438 46.6719 1.92188 47.0781 2.10938C47.4844 2.26562 47.875 2.375 48.25 2.4375C48.8438 2.53125 49.4688 2.57812 50.125 2.57812C50.8125 2.57812 51.4844 2.60938 52.1406 2.67188C52.7969 2.73437 53.4219 2.85938 54.0156 3.04688C54.6094 3.20312 55.1562 3.5 55.6562 3.9375C55.9062 4.15625 56.125 4.40625 56.3125 4.6875C56.5312 4.96875 56.6406 5.28125 56.6406 5.625ZM103.844 54.6562C103.844 55.0625 103.766 55.4688 103.609 55.875C103.484 56.25 103.328 56.6406 103.141 57.0469C102.953 57.4219 102.766 57.7969 102.578 58.1719C102.422 58.5469 102.312 58.9375 102.25 59.3438C102.094 60.1875 101.766 60.9531 101.266 61.6406C100.797 62.2969 100.25 62.9219 99.625 63.5156C99 64.1094 98.3438 64.6875 97.6562 65.25C96.9688 65.7812 96.3594 66.3281 95.8281 66.8906C95.3594 67.3594 94.8594 67.5938 94.3281 67.5938C94.0156 67.5938 93.7188 67.5625 93.4375 67.5C93.1562 67.4375 92.8594 67.4062 92.5469 67.4062C92.1094 67.4062 91.75 67.4844 91.4688 67.6406C91.2188 67.7969 90.9688 67.9688 90.7188 68.1562C90.5 68.3125 90.2188 68.4688 89.875 68.625C89.5625 68.7812 89.125 68.8594 88.5625 68.8594C88.1562 68.8594 87.7656 68.9688 87.3906 69.1875C87.0156 69.4062 86.6406 69.5156 86.2656 69.5156C85.7344 69.5156 85.1094 69.3594 84.3906 69.0469C83.7031 68.7344 82.9375 68.5781 82.0938 68.5781C81.5625 68.5781 81.0312 68.6094 80.5 68.6719C79.9688 68.7031 79.4375 68.7188 78.9062 68.7188C78.4375 68.7188 77.9688 68.6562 77.5 68.5312C77.0625 68.375 76.625 68.2188 76.1875 68.0625C75.7812 67.875 75.3594 67.7188 74.9219 67.5938C74.4844 67.4375 74.0312 67.3594 73.5625 67.3594C72.625 67.3594 71.8281 67.5938 71.1719 68.0625C70.5156 68.5312 69.9219 69.0469 69.3906 69.6094C68.8906 70.2031 68.375 70.7344 67.8438 71.2031C67.3438 71.6719 66.7656 71.9062 66.1094 71.9062C65.5156 71.9062 65.1094 71.7969 64.8906 71.5781C64.7031 71.3906 64.5781 71.1562 64.5156 70.875C64.4844 70.5938 64.4531 70.2812 64.4219 69.9375C64.3906 69.625 64.25 69.3438 64 69.0938C63.5312 68.5938 63.2188 68.1406 63.0625 67.7344C62.9062 67.2969 62.8281 66.7344 62.8281 66.0469C62.8281 64.5469 62.9531 63.0938 63.2031 61.6875C63.4844 60.25 63.625 58.7812 63.625 57.2812C63.625 56.75 63.5625 56.2344 63.4375 55.7344C63.3125 55.2344 63.1562 54.7812 62.9688 54.375C62.8125 53.9688 62.6719 53.625 62.5469 53.3438C62.4219 53.0625 62.3594 52.8594 62.3594 52.7344C62.3594 52.4531 62.4375 52.1562 62.5938 51.8438C62.75 51.5312 62.9219 51.25 63.1094 51C63.3281 50.7188 63.5469 50.5 63.7656 50.3438C64.0156 50.1562 64.2188 50.0625 64.375 50.0625C64.6875 50.0625 64.9531 50.1406 65.1719 50.2969C65.4219 50.4531 65.6562 50.625 65.875 50.8125C66.125 50.9688 66.3594 51.125 66.5781 51.2812C66.8281 51.4375 67.125 51.5156 67.4688 51.5156C67.5312 51.5156 67.5781 51.5156 67.6094 51.5156C67.6406 51.4844 67.6875 51.4688 67.75 51.4688C68.1875 52.1875 68.5312 52.9688 68.7812 53.8125C69.0312 54.625 69.2812 55.4375 69.5312 56.25C69.8125 57.0312 70.1406 57.7969 70.5156 58.5469C70.9219 59.2656 71.4844 59.9062 72.2031 60.4688C72.3906 60.625 72.6094 60.7969 72.8594 60.9844C73.1094 61.1719 73.3594 61.3594 73.6094 61.5469C73.8906 61.7344 74.1562 61.8906 74.4062 62.0156C74.6875 62.1406 74.9375 62.2031 75.1562 62.2031C75.5 62.2031 75.8281 62.1719 76.1406 62.1094C76.4844 62.0469 76.8281 62.0156 77.1719 62.0156C77.6406 62.0156 77.875 62.1719 77.875 62.4844C77.875 62.5469 77.8438 62.6719 77.7812 62.8594H78.3438H78.6719C79.8594 62.8594 81.0469 62.7188 82.2344 62.4375C83.4219 62.1562 84.625 62.0156 85.8438 62.0156C86.4062 62.0156 86.9688 62.0781 87.5312 62.2031C88.125 62.2969 88.6562 62.5156 89.125 62.8594C89.7188 62.5781 90.2188 62.2188 90.625 61.7812C91.0312 61.3438 91.4375 60.9219 91.8438 60.5156C92.25 60.0781 92.7031 59.7031 93.2031 59.3906C93.7031 59.0469 94.3438 58.8594 95.125 58.8281C95.2812 58.6406 95.3594 58.4219 95.3594 58.1719C95.3906 57.9219 95.4062 57.6875 95.4062 57.4688C95.4062 57.2188 95.4219 56.9844 95.4531 56.7656C95.5156 56.5469 95.6406 56.3438 95.8281 56.1562C96.1406 55.875 96.375 55.5938 96.5312 55.3125C96.7188 55 96.8125 54.625 96.8125 54.1875C96.8125 53.3438 96.5781 52.5625 96.1094 51.8438C95.6406 51.0938 95.0312 50.4219 94.2812 49.8281C93.5625 49.2031 92.7188 48.6562 91.75 48.1875C90.8125 47.6875 89.8438 47.2656 88.8438 46.9219C87.875 46.5781 86.9375 46.3281 86.0312 46.1719C85.125 45.9844 84.3281 45.8906 83.6406 45.8906C82.8594 45.8906 82.0781 45.9688 81.2969 46.125C80.5469 46.25 79.8125 46.4844 79.0938 46.8281C79.0938 46.1406 78.9375 45.6875 78.625 45.4688C78.3125 45.25 77.9375 45.0938 77.5 45C77.0625 44.9062 76.6094 44.7812 76.1406 44.625C75.7031 44.4375 75.3594 44.0469 75.1094 43.4531C74.5781 44.1406 73.9062 44.6406 73.0938 44.9531C72.3125 45.2656 71.5156 45.4219 70.7031 45.4219C69.8906 45.4219 69.1406 45.2656 68.4531 44.9531C67.7656 44.6406 67.1406 44.2188 66.5781 43.6875C66.0469 43.1562 65.6094 42.5469 65.2656 41.8594C64.9531 41.1719 64.7812 40.4375 64.75 39.6562C64.7188 39.125 64.6094 38.6562 64.4219 38.25C64.2344 37.8438 64.0312 37.4531 63.8125 37.0781C63.5938 36.7031 63.3906 36.3125 63.2031 35.9062C63.0469 35.5 62.9688 35.0156 62.9688 34.4531C62.9688 33.0469 63.0312 31.9531 63.1562 31.1719C63.3125 30.3594 63.5 29.75 63.7188 29.3438C63.9375 28.9062 64.1719 28.6094 64.4219 28.4531C64.7031 28.2656 64.9844 28.0938 65.2656 27.9375C65.5469 27.75 65.8125 27.5 66.0625 27.1875C66.3125 26.875 66.5156 26.375 66.6719 25.6875C66.7656 25.2188 66.9062 24.9062 67.0938 24.75C67.2812 24.5938 67.6094 24.4844 68.0781 24.4219C68.4844 24.3594 68.75 24.2656 68.875 24.1406C69 24.0156 69.0781 23.875 69.1094 23.7188C69.1719 23.5625 69.2344 23.4062 69.2969 23.25C69.3594 23.0625 69.5156 22.8906 69.7656 22.7344C70.4219 22.2969 71.0625 22.0312 71.6875 21.9375C72.3438 21.8125 73.0156 21.75 73.7031 21.75C74.1094 21.75 74.5 21.7656 74.875 21.7969C75.25 21.7969 75.6562 21.7969 76.0938 21.7969C77.4062 21.7969 78.6875 21.7344 79.9375 21.6094C81.1875 21.4844 82.4688 21.4219 83.7812 21.4219C84.7812 21.4219 85.6875 21.5312 86.5 21.75C87.3438 21.9375 88.0781 22.1562 88.7031 22.4062C89.3281 22.6562 89.8594 22.8906 90.2969 23.1094C90.7656 23.2969 91.1406 23.3906 91.4219 23.3906C91.9531 23.3906 92.4531 23.2969 92.9219 23.1094C93.4219 22.8906 93.9375 22.7656 94.4688 22.7344C94.7188 22.9531 95 23.1562 95.3125 23.3438C95.6562 23.5 96 23.5781 96.3438 23.5781C96.5938 23.5781 96.7812 23.5 96.9062 23.3438C97.0312 23.1875 97.1094 22.9844 97.1406 22.7344C97.5781 22.8594 98 23.0781 98.4062 23.3906C98.8125 23.7031 99.1719 24.0781 99.4844 24.5156C99.8281 24.9219 100.094 25.375 100.281 25.875C100.469 26.3438 100.562 26.7969 100.562 27.2344C100.562 28.3906 100.469 29.5469 100.281 30.7031C100.125 31.8281 100.047 32.9688 100.047 34.125C100.047 35.3125 100.203 36.4219 100.516 37.4531C100.078 37.7969 99.5938 38.1094 99.0625 38.3906C98.5625 38.6406 98.1406 39 97.7969 39.4688L97.75 39.4219C97.5312 39.2344 97.25 39 96.9062 38.7188C96.5938 38.4062 96.25 38.1094 95.875 37.8281C95.5312 37.5469 95.1875 37.3125 94.8438 37.125C94.5 36.9062 94.1875 36.7969 93.9062 36.7969H93.8125C93.6562 36.7031 93.5156 36.5938 93.3906 36.4688C93.2969 36.3438 93.25 36.1875 93.25 36C93.25 35.6875 93.3438 35.4062 93.5312 35.1562C93.7188 34.9062 93.8125 34.625 93.8125 34.3125C93.8125 34.2188 93.6719 34 93.3906 33.6562C93.1094 33.3125 92.7812 32.9688 92.4062 32.625C92.0625 32.25 91.7188 31.9219 91.375 31.6406C91.0312 31.3281 90.7812 31.1562 90.625 31.125C90.3125 31.0625 89.9844 30.9531 89.6406 30.7969C89.2969 30.6406 88.9531 30.4844 88.6094 30.3281C88.2656 30.1719 87.9375 30.0312 87.625 29.9062C87.3438 29.7812 87.1094 29.7188 86.9219 29.7188C86.5156 29.7188 86.1094 29.7812 85.7031 29.9062C85.2969 30 84.875 30.0625 84.4375 30.0938H84.4844L82.375 29.8594C81.3438 29.7344 80.3281 29.4844 79.3281 29.1094C78.3281 28.7344 77.2969 28.5469 76.2344 28.5469C75.2969 28.5469 74.6094 28.7656 74.1719 29.2031C73.7344 29.6406 73.375 30.1406 73.0938 30.7031C72.8125 31.2344 72.5312 31.7188 72.25 32.1562C71.9688 32.5938 71.5 32.8125 70.8438 32.8125C70.6562 32.8125 70.5156 32.7969 70.4219 32.7656C70.7344 33.7656 71.0156 34.6094 71.2656 35.2969C71.5469 35.9844 71.875 36.6094 72.25 37.1719C72.625 37.7031 73.0938 38.2188 73.6562 38.7188C74.2188 39.1875 74.9375 39.7031 75.8125 40.2656C75.9062 40.3281 76.0312 40.4375 76.1875 40.5938C76.375 40.75 76.5625 40.9219 76.75 41.1094C76.9375 41.2656 77.1094 41.4062 77.2656 41.5312C77.4531 41.6562 77.5938 41.7188 77.6875 41.7188C78.2188 41.7188 78.7188 41.5938 79.1875 41.3438C79.6875 41.0938 80.2031 40.9688 80.7344 40.9688C81.1094 40.9688 81.4531 41.0625 81.7656 41.25C82.1094 41.4062 82.4688 41.4844 82.8438 41.4844C83.2188 41.4844 83.5781 41.4219 83.9219 41.2969C84.2656 41.1406 84.6406 41.0625 85.0469 41.0625C85.2031 41.0625 85.3594 41.0781 85.5156 41.1094C85.7031 41.1406 85.875 41.1719 86.0312 41.2031C86.9688 41.4531 87.9062 41.5781 88.8438 41.5781C89.7812 41.5469 90.7344 41.5469 91.7031 41.5781C92.3906 41.5781 93.0781 41.7031 93.7656 41.9531C94.4844 42.2031 95.1719 42.5312 95.8281 42.9375C96.4844 43.3125 97.0938 43.75 97.6562 44.25C98.2188 44.75 98.7031 45.2656 99.1094 45.7969C99.4219 46.2344 99.7656 46.625 100.141 46.9688C100.516 47.3125 100.875 47.6719 101.219 48.0469C101.594 48.3906 101.922 48.7656 102.203 49.1719C102.484 49.5781 102.688 50.0469 102.812 50.5781C102.969 51.2031 103.172 51.8906 103.422 52.6406C103.703 53.3906 103.844 54.0625 103.844 54.6562ZM139.375 10.1719C139.375 11.0781 139.219 12.0156 138.906 12.9844C138.625 13.9219 138.203 14.7969 137.641 15.6094C137.078 16.3906 136.391 17.0469 135.578 17.5781C134.797 18.0781 133.922 18.3281 132.953 18.3281C132.297 18.3281 131.484 18.2344 130.516 18.0469C129.547 17.8281 128.609 17.5312 127.703 17.1562C126.828 16.75 126.062 16.2344 125.406 15.6094C124.781 14.9844 124.469 14.25 124.469 13.4062C124.469 12.6562 124.547 11.8906 124.703 11.1094C124.891 10.2969 125 9.48437 125.031 8.67188C125.344 8.51563 125.656 8.23438 125.969 7.82812C126.281 7.42187 126.578 7.01563 126.859 6.60938C127.172 6.17188 127.469 5.78125 127.75 5.4375C128.062 5.09375 128.375 4.90625 128.688 4.875L128.453 4.96875C128.891 4.78125 129.344 4.625 129.812 4.5C130.312 4.375 130.812 4.3125 131.312 4.3125C131.969 4.3125 132.75 4.48438 133.656 4.82812C134.594 5.14063 135.484 5.5625 136.328 6.09375C137.172 6.625 137.891 7.25 138.484 7.96875C139.078 8.6875 139.375 9.42188 139.375 10.1719ZM162.062 67.2188C162.062 67.75 161.953 68.25 161.734 68.7188C161.547 69.1875 161.266 69.5938 160.891 69.9375C160.547 70.3125 160.141 70.6094 159.672 70.8281C159.203 71.0469 158.688 71.1562 158.125 71.1562C157.906 71.1562 157.766 71.125 157.703 71.0625C157.641 71 157.531 70.8906 157.375 70.7344C156.938 70.2656 156.406 69.9844 155.781 69.8906C155.156 69.8281 154.5 69.75 153.812 69.6562C153.156 69.5938 152.516 69.4219 151.891 69.1406C151.297 68.8906 150.812 68.3594 150.438 67.5469C150.188 67.0156 149.922 66.6719 149.641 66.5156C149.359 66.3594 148.922 66.2812 148.328 66.2812C146.953 66.2812 145.641 66.5 144.391 66.9375C143.141 67.375 141.906 67.875 140.688 68.4375C139.469 68.9688 138.219 69.4531 136.938 69.8906C135.688 70.3281 134.391 70.5469 133.047 70.5469C132.297 70.5469 131.547 70.4688 130.797 70.3125C130.078 70.1875 129.375 69.9688 128.688 69.6562C128.531 69.8125 128.344 69.9219 128.125 69.9844C127.938 70.0469 127.719 70.0781 127.469 70.0781C127.25 70.0781 127.031 70.0625 126.812 70.0312C126.625 70 126.453 69.9844 126.297 69.9844C126.266 69.9844 126.094 70.0312 125.781 70.125C125.469 70.25 125.281 70.3281 125.219 70.3594L125.5 70.8281C125.312 71.1094 124.891 71.375 124.234 71.625C123.578 71.9062 122.859 72.1406 122.078 72.3281C121.328 72.5156 120.594 72.6719 119.875 72.7969C119.156 72.9219 118.609 72.9844 118.234 72.9844C117.234 72.9844 116.406 72.8125 115.75 72.4688C115.125 72.1562 114.5 71.5938 113.875 70.7812C113.656 70.4688 113.375 70.1562 113.031 69.8438C112.719 69.5312 112.406 69.2188 112.094 68.9062C111.812 68.5625 111.562 68.2031 111.344 67.8281C111.156 67.4531 111.062 67.0625 111.062 66.6562C111.062 66.1875 111.312 65.7969 111.812 65.4844C112.312 65.1719 112.906 64.9219 113.594 64.7344C114.281 64.5156 114.969 64.375 115.656 64.3125C116.344 64.2188 116.875 64.1719 117.25 64.1719C118 64.1719 118.75 64.2812 119.5 64.5C120.25 64.6875 121 64.7812 121.75 64.7812C122.438 64.7812 123.094 64.6875 123.719 64.5C124.344 64.3125 125 64.2188 125.688 64.2188C126.281 64.2188 126.859 64.2656 127.422 64.3594C128.016 64.4219 128.609 64.4531 129.203 64.4531C129.953 64.4531 130.672 64.3281 131.359 64.0781C132.078 63.7969 132.75 63.4375 133.375 63C133.625 61.4688 133.797 59.9375 133.891 58.4062C134.016 56.875 134.078 55.3281 134.078 53.7656C134.078 52.2344 133.953 50.7031 133.703 49.1719C133.453 47.6406 133.328 46.125 133.328 44.625C133.328 44.5 133.359 44.4375 133.422 44.4375C133.484 44.4062 133.547 44.3906 133.609 44.3906C133.703 44.3594 133.781 44.3281 133.844 44.2969C133.906 44.2344 133.938 44.1094 133.938 43.9219C133.938 43.2656 133.844 42.625 133.656 42C133.469 41.375 133.375 40.7344 133.375 40.0781C133.375 39.2656 133.484 38.4688 133.703 37.6875C133.922 36.9062 134.031 36.1094 134.031 35.2969C134.031 34.7344 133.906 34.1719 133.656 33.6094C133.406 33.0469 133.078 32.5469 132.672 32.1094C132.266 31.6719 131.797 31.3281 131.266 31.0781C130.734 30.7969 130.172 30.6562 129.578 30.6562C128.922 30.6562 128.266 30.7344 127.609 30.8906C126.984 31.0469 126.328 31.2344 125.641 31.4531C124.953 31.6406 124.25 31.8125 123.531 31.9688C122.844 32.125 122.109 32.2031 121.328 32.2031C120.422 32.2031 119.531 32.1406 118.656 32.0156C117.781 31.8906 116.891 31.75 115.984 31.5938C115.547 31.5312 115.047 31.4688 114.484 31.4062C113.953 31.3438 113.438 31.2344 112.938 31.0781C112.438 30.9219 112.016 30.6875 111.672 30.375C111.328 30.0625 111.156 29.6094 111.156 29.0156C111.156 27.9219 111.344 27.0938 111.719 26.5312C112.125 25.9375 112.609 25.5 113.172 25.2188C113.766 24.9375 114.422 24.7656 115.141 24.7031C115.859 24.6406 116.547 24.5781 117.203 24.5156C118.391 24.4219 119.562 24.3438 120.719 24.2812C121.906 24.1875 123.094 24.1406 124.281 24.1406C125.75 24.1406 127.188 24.2344 128.594 24.4219C130.031 24.5781 131.484 24.6562 132.953 24.6562C133.984 24.6562 134.969 24.8125 135.906 25.125C136.844 25.4375 137.656 25.9219 138.344 26.5781C139.062 27.2031 139.625 28 140.031 28.9688C140.438 29.9375 140.641 31.0625 140.641 32.3438C140.641 33.1875 140.453 34.0156 140.078 34.8281C139.734 35.6094 139.281 36.3125 138.719 36.9375C138.938 37.3438 139.156 37.625 139.375 37.7812C139.594 37.9062 139.797 38.0312 139.984 38.1562C140.172 38.25 140.328 38.3906 140.453 38.5781C140.578 38.7344 140.641 39.0469 140.641 39.5156C140.641 39.7656 140.672 40.0625 140.734 40.4062C140.828 40.7188 141.047 40.8906 141.391 40.9219C141.391 42.6094 141.375 44.2812 141.344 45.9375C141.312 47.5625 141.297 49.2031 141.297 50.8594C141.297 52.2656 141.297 53.6719 141.297 55.0781C141.328 56.4844 141.453 57.8906 141.672 59.2969C141.797 60.1719 142.047 60.8438 142.422 61.3125C142.797 61.7812 143.469 62.0156 144.438 62.0156C145.844 62.0156 147.234 61.875 148.609 61.5938C149.984 61.2812 151.375 61.125 152.781 61.125C153.594 61.125 154.359 61.3281 155.078 61.7344C155.828 62.1406 156.531 62.5781 157.188 63.0469C157.875 63.5156 158.531 63.9531 159.156 64.3594C159.781 64.7656 160.375 64.9688 160.938 64.9688C161.188 64.9688 161.391 65.0625 161.547 65.25C161.703 65.4062 161.812 65.6094 161.875 65.8594C161.969 66.0781 162.016 66.3125 162.016 66.5625C162.047 66.8125 162.062 67.0312 162.062 67.2188ZM220.844 67.7812C220.844 68.2188 220.734 68.5781 220.516 68.8594C220.297 69.1406 220.016 69.3594 219.672 69.5156C219.359 69.6719 219 69.7656 218.594 69.7969C218.219 69.8594 217.859 69.8906 217.516 69.8906C217.047 69.8906 216.578 69.8594 216.109 69.7969C215.641 69.7344 215.172 69.6719 214.703 69.6094C214.078 69.8281 213.328 70.0469 212.453 70.2656C211.609 70.5156 210.844 70.6406 210.156 70.6406C209.969 70.6406 209.781 70.6094 209.594 70.5469C209.438 70.4844 209.281 70.4531 209.125 70.4531C208.594 70.4531 208.047 70.5469 207.484 70.7344C206.953 70.9531 206.422 71.0625 205.891 71.0625C204.984 71.0625 204.109 70.9375 203.266 70.6875C202.453 70.4688 201.594 70.3281 200.688 70.2656C199.219 70.1406 198.078 69.5781 197.266 68.5781C196.484 67.5469 196.062 66.3281 196 64.9219C196.969 64.3281 197.984 63.9219 199.047 63.7031C200.141 63.4844 201.234 63.375 202.328 63.375C202.953 63.375 203.562 63.3906 204.156 63.4219C204.781 63.4531 205.406 63.5 206.031 63.5625C205.938 61.2188 205.734 58.875 205.422 56.5312C205.109 54.1875 204.953 51.8281 204.953 49.4531C204.953 48.6406 204.969 47.8281 205 47.0156C205.062 46.2031 205.172 45.3906 205.328 44.5781C205.484 43.7656 205.688 42.9688 205.938 42.1875C206.188 41.375 206.312 40.5625 206.312 39.75C206.312 39.2188 206.234 38.7344 206.078 38.2969C205.922 37.8281 205.719 37.3594 205.469 36.8906C205.25 36.5156 205.109 36.0938 205.047 35.625C204.984 35.1562 204.906 34.6875 204.812 34.2188C204.719 33.7188 204.578 33.2344 204.391 32.7656C204.203 32.2969 203.891 31.875 203.453 31.5C203.047 31.125 202.469 30.8281 201.719 30.6094C200.969 30.3906 199.984 30.2812 198.766 30.2812C198.391 30.2812 197.828 30.3438 197.078 30.4688C196.359 30.5625 195.609 30.7031 194.828 30.8906C194.078 31.0469 193.359 31.25 192.672 31.5C192.016 31.7188 191.562 31.9531 191.312 32.2031C191.156 32.3594 190.953 32.5781 190.703 32.8594C190.484 33.1406 190.234 33.4375 189.953 33.75C189.703 34.0312 189.453 34.2969 189.203 34.5469C188.953 34.7656 188.734 34.8906 188.547 34.9219C188.078 35.0156 187.719 35.0938 187.469 35.1562C187.25 35.2188 187.062 35.3125 186.906 35.4375C186.781 35.5625 186.672 35.75 186.578 36C186.484 36.2188 186.328 36.5469 186.109 36.9844C186.047 37.1094 185.922 37.3594 185.734 37.7344C185.547 38.0781 185.359 38.25 185.172 38.25C185.016 38.25 184.906 38.1875 184.844 38.0625C184.781 37.9375 184.672 37.875 184.516 37.875C184.453 37.875 184.359 37.9219 184.234 38.0156C184.141 38.0781 184.062 38.1406 184 38.2031V39.5156C183.781 39.7656 183.578 39.9062 183.391 39.9375C183.234 39.9375 183.094 39.9531 182.969 39.9844C182.875 40.0156 182.797 40.0938 182.734 40.2188C182.703 40.3438 182.688 40.6406 182.688 41.1094C182.688 41.4531 182.609 41.7656 182.453 42.0469C182.297 42.3281 182.125 42.6094 181.938 42.8906C181.781 43.1719 181.625 43.4688 181.469 43.7812C181.312 44.0625 181.234 44.3906 181.234 44.7656C181.234 45.3906 181.312 46 181.469 46.5938C181.656 47.1562 181.75 47.75 181.75 48.375C181.75 48.7812 181.688 49.125 181.562 49.4062C181.438 49.6875 181.281 49.9531 181.094 50.2031C180.938 50.4219 180.797 50.6406 180.672 50.8594C180.547 51.0781 180.484 51.3438 180.484 51.6562C180.484 52.0938 180.562 52.5 180.719 52.875C180.906 53.2188 181.094 53.5781 181.281 53.9531C181.469 54.3281 181.641 54.7188 181.797 55.125C181.984 55.5312 182.078 55.9688 182.078 56.4375C182.078 56.9688 182.016 57.5156 181.891 58.0781C181.766 58.6094 181.703 59.1562 181.703 59.7188C181.703 60.375 181.797 60.8906 181.984 61.2656C182.203 61.6094 182.469 61.875 182.781 62.0625C183.125 62.25 183.516 62.3906 183.953 62.4844C184.391 62.5781 184.828 62.7188 185.266 62.9062C185.734 63.0625 186.203 63.2969 186.672 63.6094C187.141 63.8906 187.578 64.3281 187.984 64.9219L188.266 64.875C188.797 64.875 189.188 65.0938 189.438 65.5312C189.688 65.9688 189.812 66.4219 189.812 66.8906C189.812 67.3281 189.719 67.7188 189.531 68.0625C189.344 68.375 189.25 68.7969 189.25 69.3281C189.25 69.7031 188.844 70.0156 188.031 70.2656C187.219 70.5156 186.297 70.7031 185.266 70.8281C184.234 70.9844 183.234 71.0781 182.266 71.1094C181.328 71.1719 180.703 71.2031 180.391 71.2031C180.016 71.2031 179.438 71.1875 178.656 71.1562C177.906 71.1562 177.047 71.125 176.078 71.0625C175.141 71.0312 174.156 70.9688 173.125 70.875C172.094 70.7812 171.141 70.6406 170.266 70.4531C169.391 70.2969 168.641 70.0781 168.016 69.7969C167.422 69.5469 167.047 69.2344 166.891 68.8594C166.734 68.4844 166.578 68.0781 166.422 67.6406C166.266 67.1719 166.188 66.7188 166.188 66.2812C166.188 65.8125 166.297 65.3906 166.516 65.0156C166.766 64.6406 167.062 64.2969 167.406 63.9844C167.875 63.5469 168.391 63.2969 168.953 63.2344C169.516 63.1406 170.062 63.0938 170.594 63.0938C171.156 63.0625 171.688 63.0156 172.188 62.9531C172.719 62.8594 173.172 62.6094 173.547 62.2031C173.953 61.7969 174.266 61.1562 174.484 60.2812C174.734 59.4062 174.859 58.1719 174.859 56.5781C174.859 56.1719 174.828 55.7656 174.766 55.3594C174.703 54.9219 174.625 54.5156 174.531 54.1406C174.438 53.7344 174.359 53.375 174.297 53.0625C174.234 52.75 174.203 52.5156 174.203 52.3594C174.203 52.1719 174.25 51.9688 174.344 51.75C174.469 51.5312 174.594 51.3125 174.719 51.0938C174.875 50.8438 175 50.5781 175.094 50.2969C175.219 50.0156 175.281 49.7031 175.281 49.3594C175.281 48.8281 175.172 48.3125 174.953 47.8125C174.766 47.3125 174.672 46.7969 174.672 46.2656C174.672 45.8281 174.75 45.4062 174.906 45C175.062 44.5938 175.141 44.1719 175.141 43.7344C175.141 43.3906 175.047 43.0625 174.859 42.75C174.672 42.4375 174.578 42.0938 174.578 41.7188C174.578 41.375 174.641 41.0312 174.766 40.6875C174.891 40.3125 174.953 39.9375 174.953 39.5625C174.953 38.75 174.859 37.9219 174.672 37.0781C174.484 36.2031 174.312 35.3594 174.156 34.5469C173.969 33.5781 173.609 32.8594 173.078 32.3906C172.578 31.8906 172 31.5156 171.344 31.2656C170.688 31.0156 170 30.8125 169.281 30.6562C168.562 30.5 167.906 30.2656 167.312 29.9531C166.719 29.6094 166.219 29.1406 165.812 28.5469C165.438 27.9219 165.25 27.0156 165.25 25.8281C165.25 25.0156 165.484 24.3906 165.953 23.9531C166.453 23.5156 167.047 23.2031 167.734 23.0156C168.422 22.7969 169.141 22.6719 169.891 22.6406C170.672 22.6094 171.344 22.5938 171.906 22.5938C172.812 22.5938 173.703 22.7344 174.578 23.0156C175.484 23.2656 176.391 23.4219 177.297 23.4844C177.703 23.5156 178.094 23.6562 178.469 23.9062C178.844 24.125 179.188 24.4062 179.5 24.75C179.812 25.0625 180.062 25.4219 180.25 25.8281C180.438 26.2344 180.547 26.6406 180.578 27.0469C180.578 27.2344 180.641 27.5781 180.766 28.0781C180.891 28.5469 181.031 29.0312 181.188 29.5312C181.375 30.0312 181.562 30.4844 181.75 30.8906C181.969 31.2656 182.188 31.4531 182.406 31.4531C182.594 31.2969 182.719 31.125 182.781 30.9375C182.875 30.7188 182.953 30.5156 183.016 30.3281C183.047 30.1406 183.25 29.8906 183.625 29.5781C184.031 29.2656 184.469 28.9375 184.938 28.5938C185.438 28.25 185.906 27.9219 186.344 27.6094C186.812 27.2969 187.141 27.0469 187.328 26.8594C187.516 26.6406 187.656 26.4219 187.75 26.2031C187.875 25.9531 187.984 25.7344 188.078 25.5469C188.203 25.3281 188.344 25.1562 188.5 25.0312C188.688 24.9062 188.969 24.8438 189.344 24.8438H189.578C189.922 24.8438 190.25 24.7031 190.562 24.4219C190.875 24.1094 191.281 23.7656 191.781 23.3906C192.281 23.0156 192.938 22.6875 193.75 22.4062C194.562 22.0938 195.641 21.9375 196.984 21.9375C198.141 21.9375 199.297 21.9688 200.453 22.0312C201.609 22.0625 202.703 22.2188 203.734 22.5C204.797 22.7812 205.781 23.2188 206.688 23.8125C207.625 24.4062 208.438 25.2344 209.125 26.2969C209.656 27.1406 210.094 27.7656 210.438 28.1719C210.781 28.5781 211.062 28.9688 211.281 29.3438C211.5 29.7188 211.641 30.1719 211.703 30.7031C211.797 31.2344 211.844 32.0312 211.844 33.0938C211.844 33.5312 211.922 33.9375 212.078 34.3125C212.234 34.6875 212.406 35.0781 212.594 35.4844C212.812 35.8594 213 36.2656 213.156 36.7031C213.312 37.1406 213.391 37.6406 213.391 38.2031C213.391 39.2969 213.328 40.3906 213.203 41.4844C213.078 42.5469 213.016 43.625 213.016 44.7188C213.016 45.5 212.859 46.2656 212.547 47.0156C212.266 47.7656 212.125 48.5312 212.125 49.3125C212.125 49.6875 212.219 50.0469 212.406 50.3906C212.594 50.7344 212.688 51.125 212.688 51.5625C212.688 52.0938 212.625 52.6406 212.5 53.2031C212.375 53.7344 212.312 54.2656 212.312 54.7969C212.312 55.2969 212.422 55.7344 212.641 56.1094C212.891 56.4844 213.016 56.9062 213.016 57.375C213.016 57.625 212.953 57.8281 212.828 57.9844C212.734 58.1406 212.609 58.2969 212.453 58.4531C212.328 58.6094 212.203 58.7812 212.078 58.9688C211.984 59.125 211.938 59.3281 211.938 59.5781C211.938 60.0469 212.047 60.5312 212.266 61.0312C212.516 61.5 212.828 61.9375 213.203 62.3438C213.578 62.7188 214 63.0312 214.469 63.2812C214.938 63.5 215.406 63.6094 215.875 63.6094C216.281 63.6094 216.625 63.5312 216.906 63.375C217.219 63.1875 217.547 63.0938 217.891 63.0938C218.328 63.0938 218.719 63.2812 219.062 63.6562C219.438 64 219.75 64.4219 220 64.9219C220.281 65.4219 220.484 65.9375 220.609 66.4688C220.766 67 220.844 67.4375 220.844 67.7812ZM210.719 50.1094C210.719 49.7969 210.609 49.5 210.391 49.2188C210.203 48.9062 209.938 48.75 209.594 48.75C209.25 48.75 209.016 48.9219 208.891 49.2656C208.766 49.5781 208.703 49.875 208.703 50.1562C208.703 50.5 208.766 50.8281 208.891 51.1406C209.016 51.4531 209.266 51.6094 209.641 51.6094C209.953 51.6094 210.188 51.5156 210.344 51.3281C210.531 51.1094 210.656 50.7344 210.719 50.2031V50.1094ZM211.516 59.1094C211.516 58.8906 211.422 58.7188 211.234 58.5938C211.078 58.4375 210.906 58.3125 210.719 58.2188C210.656 58.4062 210.547 58.5938 210.391 58.7812C210.234 58.9688 210.078 59.1719 209.922 59.3906C209.766 59.6094 209.609 59.8281 209.453 60.0469C209.328 60.2656 209.266 60.4844 209.266 60.7031C209.266 60.9531 209.344 61.1406 209.5 61.2656C209.656 61.3906 209.844 61.5 210.062 61.5938C210.094 61.4062 210.188 61.2188 210.344 61.0312C210.531 60.8438 210.703 60.6406 210.859 60.4219C211.016 60.2031 211.156 60 211.281 59.8125C211.438 59.5938 211.516 59.3594 211.516 59.1094ZM180.344 49.0312C180.344 48.8125 180.297 48.5469 180.203 48.2344C180.141 47.9219 180.031 47.625 179.875 47.3438C179.75 47.0312 179.578 46.7812 179.359 46.5938C179.172 46.375 178.938 46.2656 178.656 46.2656C178.312 46.2656 178.016 46.375 177.766 46.5938C177.516 46.7812 177.203 46.875 176.828 46.875H176.641C176.547 47.2188 176.5 47.5469 176.5 47.8594L176.547 48.1406L176.594 48C176.688 48.3438 176.875 48.6094 177.156 48.7969C177.438 48.9844 177.734 49.1562 178.047 49.3125C178.391 49.4375 178.734 49.5625 179.078 49.6875C179.422 49.8125 179.719 49.9844 179.969 50.2031C180.219 49.9219 180.344 49.5312 180.344 49.0312ZM276.719 60.7969C276.719 61.3281 276.625 61.8281 276.438 62.2969C276.25 62.7656 276.078 63.25 275.922 63.75C275.797 64.1875 275.703 64.5469 275.641 64.8281C275.609 65.1094 275.547 65.3594 275.453 65.5781C275.359 65.7656 275.203 65.9531 274.984 66.1406C274.797 66.2969 274.484 66.4844 274.047 66.7031C273.109 67.2031 272.109 67.7188 271.047 68.25C270.016 68.75 268.969 69 267.906 69C267 69 266.141 68.7969 265.328 68.3906C264.547 67.9531 263.812 67.4844 263.125 66.9844C262.469 66.4531 261.859 65.9688 261.297 65.5312C260.766 65.0938 260.312 64.875 259.938 64.875C259.531 64.875 259.172 64.9844 258.859 65.2031C258.578 65.4219 258.281 65.6562 257.969 65.9062C257.688 66.1562 257.359 66.3906 256.984 66.6094C256.641 66.8281 256.203 66.9375 255.672 66.9375C255.234 66.9375 254.781 67.0156 254.312 67.1719C253.844 67.3281 253.375 67.5156 252.906 67.7344C252.438 67.9219 251.953 68.125 251.453 68.3438C250.984 68.5312 250.547 68.6875 250.141 68.8125C248.734 69.1875 247.312 69.4062 245.875 69.4688C244.469 69.5312 243.047 69.5625 241.609 69.5625C241.234 69.5625 240.656 69.5469 239.875 69.5156C239.094 69.5156 238.297 69.4375 237.484 69.2812C236.703 69.1562 236 68.9375 235.375 68.625C234.781 68.3125 234.484 67.875 234.484 67.3125C234.484 67.1875 234.5 67.0781 234.531 66.9844C234.312 67.2344 234.062 67.4375 233.781 67.5938C233.5 67.75 233.188 67.8281 232.844 67.8281C232.344 67.8281 231.734 67.4844 231.016 66.7969C230.297 66.1094 229.609 65.3125 228.953 64.4062C228.297 63.5 227.734 62.6094 227.266 61.7344C226.797 60.8281 226.562 60.1562 226.562 59.7188C226.562 59.375 226.656 59.0625 226.844 58.7812C227.062 58.5 227.172 58.1875 227.172 57.8438C227.172 57.4062 227.109 57 226.984 56.625C226.891 56.2188 226.844 55.7969 226.844 55.3594C226.844 54.7969 226.953 54.2031 227.172 53.5781C227.391 52.9219 227.656 52.2812 227.969 51.6562C228.281 51 228.609 50.375 228.953 49.7812C229.297 49.1562 229.609 48.5781 229.891 48.0469C230.203 47.4219 230.641 46.9219 231.203 46.5469C231.766 46.1719 232.359 45.8438 232.984 45.5625C233.609 45.2812 234.234 45 234.859 44.7188C235.484 44.4375 236.031 44.0625 236.5 43.5938C236.969 44.125 237.578 44.3906 238.328 44.3906C239.109 44.3906 239.875 44.2812 240.625 44.0625C241.375 43.8125 242.141 43.6875 242.922 43.6875C243.547 43.6875 244.141 43.75 244.703 43.875C245.297 44 245.906 44.0625 246.531 44.0625C247.219 44.0625 247.719 43.9844 248.031 43.8281C248.375 43.6406 248.797 43.3281 249.297 42.8906C249.797 42.4531 250.422 42.125 251.172 41.9062C251.953 41.6562 252.75 41.4688 253.562 41.3438C254.406 41.1875 255.234 41.0312 256.047 40.875C256.891 40.7188 257.641 40.5 258.297 40.2188C258.953 39.9062 259.484 39.5 259.891 39C260.297 38.4688 260.5 37.75 260.5 36.8438C260.5 35.8438 260.203 34.7969 259.609 33.7031C259.047 32.5781 258.312 31.5625 257.406 30.6562C256.5 29.7188 255.5 28.9531 254.406 28.3594C253.312 27.7656 252.266 27.4688 251.266 27.4688C251.141 27.4688 251.016 27.4844 250.891 27.5156C250.766 27.5469 250.656 27.5625 250.562 27.5625C249.812 27.6875 248.969 27.7812 248.031 27.8438C247.094 27.875 246.219 28.0156 245.406 28.2656C244.594 28.4844 243.906 28.875 243.344 29.4375C242.781 29.9688 242.5 30.7656 242.5 31.8281C242.5 32.4531 242.547 33.0781 242.641 33.7031C242.766 34.2969 242.828 34.9062 242.828 35.5312C242.828 36.4688 242.594 37.25 242.125 37.875C241.688 38.5 241.109 39 240.391 39.375C239.703 39.75 238.938 40.0156 238.094 40.1719C237.25 40.2969 236.438 40.3594 235.656 40.3594C234.719 40.3594 233.906 40.2344 233.219 39.9844C232.531 39.7344 231.969 39.1562 231.531 38.25C231.188 37.5938 230.812 36.8906 230.406 36.1406C230.031 35.3594 229.844 34.5781 229.844 33.7969C229.844 32.9531 229.984 32.1719 230.266 31.4531C230.578 30.7031 230.922 29.9844 231.297 29.2969C231.672 28.5781 232.031 27.875 232.375 27.1875C232.75 26.4688 233.016 25.7031 233.172 24.8906C233.391 24.7656 233.688 24.6406 234.062 24.5156C234.469 24.3906 234.891 24.2656 235.328 24.1406C235.797 24.0156 236.234 23.9062 236.641 23.8125C237.078 23.6875 237.438 23.5781 237.719 23.4844C238.469 23.2656 239.188 23.0156 239.875 22.7344C240.594 22.4219 241.312 22.1406 242.031 21.8906C242.781 21.6406 243.516 21.4219 244.234 21.2344C244.984 21.0469 245.75 20.9375 246.531 20.9062L247.984 20.8594C249.328 20.8594 250.703 20.9844 252.109 21.2344C253.516 21.4531 254.891 21.8125 256.234 22.3125C257.578 22.8125 258.844 23.4375 260.031 24.1875C261.25 24.9062 262.328 25.7656 263.266 26.7656C263.953 27.5156 264.516 28.4062 264.953 29.4375C265.422 30.4375 265.781 31.5 266.031 32.625C266.312 33.75 266.5 34.8906 266.594 36.0469C266.719 37.1719 266.781 38.2188 266.781 39.1875C266.781 40.5 266.734 41.7969 266.641 43.0781C266.578 44.3281 266.547 45.6094 266.547 46.9219C266.547 48.1719 266.609 49.4219 266.734 50.6719C266.891 51.8906 267.062 53.125 267.25 54.375C267.438 55.5938 267.594 56.8281 267.719 58.0781C267.875 59.2969 267.953 60.5156 267.953 61.7344C268.016 62.4844 268.109 62.9531 268.234 63.1406C268.391 63.2969 268.547 63.375 268.703 63.375C269.391 63.375 269.938 63.1719 270.344 62.7656C270.781 62.3281 271.172 61.8594 271.516 61.3594C271.859 60.8281 272.234 60.3438 272.641 59.9062C273.047 59.4688 273.562 59.25 274.188 59.25C274.469 59.25 274.75 59.2656 275.031 59.2969C275.344 59.3281 275.625 59.4062 275.875 59.5312C276.125 59.625 276.328 59.7812 276.484 60C276.641 60.1875 276.719 60.4531 276.719 60.7969ZM261.297 49.125C261.297 48.9375 261.281 48.6094 261.25 48.1406C261.25 47.6719 261.219 47.2031 261.156 46.7344C261.094 46.2344 260.984 45.7969 260.828 45.4219C260.703 45.0469 260.5 44.8594 260.219 44.8594C260.156 44.8594 260.078 44.8906 259.984 44.9531C259.891 44.9844 259.812 45 259.75 45C258.562 45.6562 257.547 46.2031 256.703 46.6406C255.859 47.0469 255.016 47.3906 254.172 47.6719C253.359 47.9219 252.484 48.0938 251.547 48.1875C250.609 48.2812 249.438 48.3281 248.031 48.3281C247.844 48.3281 247.328 48.4062 246.484 48.5625C245.641 48.7188 244.719 48.9062 243.719 49.125C242.719 49.3125 241.781 49.5156 240.906 49.7344C240.031 49.9219 239.484 50.0469 239.266 50.1094C238.859 50.2656 238.562 50.4219 238.375 50.5781C238.219 50.7344 238.094 50.9062 238 51.0938C237.906 51.2812 237.812 51.4844 237.719 51.7031C237.625 51.8906 237.453 52.0938 237.203 52.3125C236.891 52.5625 236.547 52.7656 236.172 52.9219C235.828 53.0781 235.5 53.3125 235.188 53.625C234.719 54.0938 234.281 54.7188 233.875 55.5C233.469 56.25 233.266 56.9688 233.266 57.6562C233.266 58.5 233.484 59.25 233.922 59.9062C234.359 60.5625 234.938 61.125 235.656 61.5938C236.375 62.0625 237.188 62.4688 238.094 62.8125C239 63.1562 239.906 63.4219 240.812 63.6094C241.75 63.7969 242.641 63.9375 243.484 64.0312C244.359 64.125 245.109 64.1719 245.734 64.1719C246.484 64.1719 247.375 64.125 248.406 64.0312C249.438 63.9062 250.469 63.7344 251.5 63.5156C252.531 63.2656 253.5 62.9375 254.406 62.5312C255.312 62.125 256.031 61.6094 256.562 60.9844C256.781 60.7344 256.938 60.5156 257.031 60.3281C257.125 60.1094 257.219 59.9062 257.312 59.7188C257.438 59.5 257.562 59.2812 257.688 59.0625C257.844 58.8438 258.078 58.6094 258.391 58.3594C259.109 57.7656 259.656 57.1094 260.031 56.3906C260.438 55.6719 260.734 54.9219 260.922 54.1406C261.109 53.3594 261.219 52.5469 261.25 51.7031C261.281 50.8594 261.297 50 261.297 49.125ZM309.859 8.85938C309.734 9.01562 309.594 9.15625 309.438 9.28125C309.312 9.40625 309.156 9.46875 308.969 9.46875C308.75 9.46875 308.562 9.375 308.406 9.1875C308.281 9 308.219 8.79688 308.219 8.57812C308.219 8.54687 308.234 8.5 308.266 8.4375C308.297 8.375 308.312 8.3125 308.312 8.25L308.594 8.15625C308.844 8.15625 309.078 8.23438 309.297 8.39062C309.516 8.54687 309.703 8.70313 309.859 8.85938ZM323.219 42.2812V42.4219C323.188 42.3281 323.172 42.25 323.172 42.1875C323.172 42.0938 323.172 42.0156 323.172 41.9531L323.219 42.2344V42.2812ZM355.891 20.6719C355.891 21.1406 355.875 21.6719 355.844 22.2656C355.812 22.8594 355.75 23.4688 355.656 24.0938C355.594 24.7188 355.5 25.3281 355.375 25.9219C355.281 26.4844 355.156 26.9844 355 27.4219C354.562 28.4844 353.984 29.4531 353.266 30.3281C352.578 31.2031 352.031 32.1875 351.625 33.2812C351.531 33.5625 351.266 33.875 350.828 34.2188C350.391 34.5625 349.906 34.9062 349.375 35.25C348.844 35.5938 348.312 35.9219 347.781 36.2344C347.281 36.5156 346.891 36.75 346.609 36.9375C344.828 38.0312 343.047 38.8594 341.266 39.4219C339.484 39.9844 337.562 40.2656 335.5 40.2656H335.219C334.719 39.9844 334.297 39.7969 333.953 39.7031C333.641 39.6094 333.188 39.5625 332.594 39.5625C332 39.5625 331.422 39.5781 330.859 39.6094C330.297 39.6406 329.734 39.6875 329.172 39.75C328.953 39.7812 328.516 39.9062 327.859 40.125C327.234 40.3125 326.578 40.5469 325.891 40.8281C325.203 41.0781 324.578 41.3438 324.016 41.625C323.484 41.875 323.219 42.0781 323.219 42.2344V42.4219C323.281 42.6406 323.359 42.75 323.453 42.75C323.609 42.75 323.75 42.6719 323.875 42.5156C324.031 42.3281 324.203 42.2344 324.391 42.2344C324.547 42.2344 324.672 42.3125 324.766 42.4688C324.859 42.625 324.922 42.8125 324.953 43.0312C325.016 43.2188 325.047 43.4219 325.047 43.6406C325.078 43.8281 325.094 43.9688 325.094 44.0625C325.094 44.9688 325 45.875 324.812 46.7812C324.625 47.6562 324.531 48.5469 324.531 49.4531C324.531 50.3594 324.516 51.2656 324.484 52.1719C324.484 53.0469 324.484 53.9375 324.484 54.8438C324.484 56.5 324.562 57.75 324.719 58.5938C324.906 59.4375 325.25 60.0781 325.75 60.5156C326.25 60.9219 326.938 61.2344 327.812 61.4531C328.688 61.6406 329.828 61.9219 331.234 62.2969C331.141 62.5781 331.094 62.8438 331.094 63.0938C331.094 63.4688 331.203 63.75 331.422 63.9375C331.672 64.0938 331.922 64.2656 332.172 64.4531C332.453 64.6094 332.703 64.7969 332.922 65.0156C333.172 65.2344 333.297 65.5781 333.297 66.0469C333.297 66.4531 333.141 66.8125 332.828 67.125C332.453 67.5 332.203 67.8125 332.078 68.0625C331.984 68.3125 331.891 68.5156 331.797 68.6719C331.703 68.7969 331.531 68.9062 331.281 69C331.031 69.0625 330.578 69.1094 329.922 69.1406C328.422 69.2344 326.938 69.2812 325.469 69.2812C324.906 69.2812 324.344 69.2656 323.781 69.2344C323.219 69.2344 322.641 69.2344 322.047 69.2344C320.547 69.2344 319.078 69.2812 317.641 69.375C316.766 69.4375 315.906 69.5781 315.062 69.7969C314.25 70.0156 313.391 70.125 312.484 70.125C311.453 70.125 310.75 69.8281 310.375 69.2344C310 68.6406 309.812 67.875 309.812 66.9375C309.812 66.0312 310.016 65.2812 310.422 64.6875C310.828 64.0625 311.328 63.5625 311.922 63.1875C312.547 62.7812 313.203 62.4531 313.891 62.2031C314.609 61.9531 315.266 61.7188 315.859 61.5C316.484 61.25 317 61 317.406 60.75C317.812 60.5 318.016 60.1719 318.016 59.7656C318.016 59.3906 317.938 59.0312 317.781 58.6875C317.656 58.3438 317.594 57.9844 317.594 57.6094C317.594 57.3906 317.703 56.9688 317.922 56.3438C318.141 55.7188 318.25 54.9844 318.25 54.1406C318.25 53.7969 318.25 53.4688 318.25 53.1562C318.25 52.8125 318.234 52.4688 318.203 52.125C318.016 52.0312 317.875 51.8438 317.781 51.5625C317.688 51.2812 317.609 50.9844 317.547 50.6719C317.516 50.3281 317.5 50 317.5 49.6875C317.5 49.3438 317.5 49.0781 317.5 48.8906C317.5 47.7031 317.578 46.5312 317.734 45.375C317.891 44.1875 317.969 43 317.969 41.8125C317.969 41.0625 317.922 40.3281 317.828 39.6094C317.734 38.8906 317.688 38.1562 317.688 37.4062C317.688 37.1875 317.75 37.0312 317.875 36.9375C317.594 36.7188 317.453 36.4062 317.453 36C317.453 35.5625 317.516 35.1562 317.641 34.7812C317.797 34.4062 317.875 34.0156 317.875 33.6094C317.875 32.9844 317.812 32.3594 317.688 31.7344C317.562 31.1094 317.422 30.5 317.266 29.9062C317.141 29.2812 317.016 28.6719 316.891 28.0781C316.797 27.4531 316.75 26.8281 316.75 26.2031C316.75 25.8281 316.797 25.4688 316.891 25.125C317.016 24.7812 317.125 24.4375 317.219 24.0938C317.344 23.7188 317.453 23.3594 317.547 23.0156C317.672 22.6406 317.734 22.25 317.734 21.8438C317.734 20.7812 317.625 19.75 317.406 18.75C317.219 17.7188 317.125 16.6719 317.125 15.6094C317.125 14.9844 317.266 14.5312 317.547 14.25C317.859 13.9375 318.188 13.6875 318.531 13.5C318.875 13.3125 319.188 13.1406 319.469 12.9844C319.781 12.7969 319.938 12.5312 319.938 12.1875C319.938 11.9687 319.828 11.7812 319.609 11.625C319.422 11.4688 319.234 11.3906 319.047 11.3906C318.609 11.3906 318.234 11.5312 317.922 11.8125C317.609 12.0938 317.25 12.2344 316.844 12.2344C316.594 12.2344 316.359 12.0781 316.141 11.7656C315.953 11.4219 315.734 11.0625 315.484 10.6875C315.266 10.3125 315 9.96875 314.688 9.65625C314.406 9.3125 314.062 9.14062 313.656 9.14062C313.312 9.14062 312.969 9.1875 312.625 9.28125C312.281 9.375 311.938 9.42188 311.594 9.42188C311.125 9.42188 310.828 9.3125 310.703 9.09375C310.578 8.875 310.516 8.59375 310.516 8.25C310.516 8.09375 310.516 7.9375 310.516 7.78125C310.547 7.625 310.562 7.46875 310.562 7.3125C310.562 7.0625 310.516 6.79688 310.422 6.51562C310.328 6.23438 310.109 6.09375 309.766 6.09375C309.578 6.09375 309.391 6.125 309.203 6.1875C309.641 5.625 310.219 5.20312 310.938 4.92188C311.656 4.60937 312.406 4.375 313.188 4.21875C314 4.0625 314.812 3.95312 315.625 3.89062C316.469 3.79688 317.219 3.67187 317.875 3.51562C318.125 3.45313 318.344 3.40625 318.531 3.375C318.75 3.34375 318.984 3.32812 319.234 3.32812C319.797 3.32812 320.344 3.39062 320.875 3.51562C321.438 3.60938 321.984 3.65625 322.516 3.65625C323.109 3.65625 323.578 3.53125 323.922 3.28125C324.297 3 324.734 2.85938 325.234 2.85938C325.484 2.98438 325.812 3.14062 326.219 3.32812C326.625 3.48437 326.953 3.5625 327.203 3.5625C328.266 3.5625 329.312 3.5 330.344 3.375C331.375 3.25 332.406 3.1875 333.438 3.1875C334.562 3.1875 335.641 3.34375 336.672 3.65625C337.734 3.9375 338.781 4.26562 339.812 4.64062C340.875 5.01562 341.922 5.39062 342.953 5.76562C343.984 6.14062 345.047 6.42188 346.141 6.60938C346.516 6.67187 346.875 6.8125 347.219 7.03125C347.594 7.25 347.953 7.51562 348.297 7.82812C348.641 8.10938 348.969 8.40625 349.281 8.71875C349.625 9.03125 349.938 9.29687 350.219 9.51562C350.656 9.85937 351 10.25 351.25 10.6875C351.531 11.125 351.797 11.5781 352.047 12.0469C352.328 12.4844 352.609 12.9219 352.891 13.3594C353.203 13.7656 353.594 14.125 354.062 14.4375C354.5 14.7188 354.844 15.125 355.094 15.6562C355.344 16.1563 355.516 16.7031 355.609 17.2969C355.734 17.8906 355.812 18.4844 355.844 19.0781C355.875 19.6719 355.891 20.2031 355.891 20.6719ZM348.156 23.5312C348.156 21.5312 347.844 19.7188 347.219 18.0938C346.625 16.4375 345.75 15.0313 344.594 13.875C343.469 12.6875 342.094 11.7656 340.469 11.1094C338.844 10.4531 337.031 10.125 335.031 10.125C334.719 10.125 334.25 10.125 333.625 10.125C333 10.125 332.312 10.1406 331.562 10.1719C330.812 10.2031 330.031 10.25 329.219 10.3125C328.406 10.375 327.656 10.4687 326.969 10.5938C326.281 10.6875 325.672 10.8281 325.141 11.0156C324.641 11.1719 324.312 11.375 324.156 11.625C323.938 11.9687 323.625 12.3906 323.219 12.8906C322.844 13.3594 322.656 13.7812 322.656 14.1562C322.656 14.5 322.75 14.8594 322.938 15.2344C323.125 15.5781 323.328 15.9531 323.547 16.3594C323.797 16.7656 324.016 17.1875 324.203 17.625C324.422 18.0313 324.531 18.4531 324.531 18.8906C324.281 18.9219 324.047 19 323.828 19.125C323.609 19.2188 323.5 19.4062 323.5 19.6875C323.5 20.1562 323.641 20.6719 323.922 21.2344C324.234 21.7969 324.391 22.375 324.391 22.9688C324.391 23.4062 324.297 23.75 324.109 24C323.922 24.2188 323.719 24.4062 323.5 24.5625C323.281 24.7188 323.078 24.875 322.891 25.0312C322.703 25.1875 322.609 25.3906 322.609 25.6406C322.609 25.9219 322.812 26.3906 323.219 27.0469C323.625 27.7031 324.078 28.4062 324.578 29.1562C325.078 29.875 325.531 30.5469 325.938 31.1719C326.344 31.7656 326.547 32.125 326.547 32.25C327.297 32.3438 328.031 32.3906 328.75 32.3906C329.219 32.3906 329.984 32.375 331.047 32.3438C332.141 32.2812 333.281 32.2188 334.469 32.1562C335.656 32.0625 336.766 31.9688 337.797 31.875C338.828 31.7812 339.531 31.6875 339.906 31.5938C340.312 31.5 340.594 31.3594 340.75 31.1719C340.906 30.9844 341.062 30.7969 341.219 30.6094C341.375 30.4219 341.562 30.2656 341.781 30.1406C342.031 29.9844 342.422 29.9062 342.953 29.9062C343.922 29.9062 344.734 29.7344 345.391 29.3906C346.078 29.0469 346.625 28.5938 347.031 28.0312C347.438 27.4375 347.719 26.7656 347.875 26.0156C348.062 25.2344 348.156 24.4062 348.156 23.5312ZM410.078 66.5625C410.078 67.6562 409.703 68.5156 408.953 69.1406C408.234 69.7969 407.359 70.2812 406.328 70.5938C405.297 70.9375 404.219 71.1562 403.094 71.25C402 71.3438 401.062 71.3906 400.281 71.3906C399.25 71.3906 398.391 71.2969 397.703 71.1094C397.047 70.9219 396.469 70.7188 395.969 70.5C395.469 70.3125 395.031 70.125 394.656 69.9375C394.281 69.75 393.891 69.6562 393.484 69.6562C392.953 69.6562 392.422 69.75 391.891 69.9375C391.391 70.125 390.875 70.2188 390.344 70.2188C389.969 70.2188 389.656 70.1562 389.406 70.0312C389.188 69.9062 389 69.75 388.844 69.5625C388.688 69.4062 388.531 69.2656 388.375 69.1406C388.25 69.0156 388.094 68.9531 387.906 68.9531C387.688 68.9531 387.516 69.0312 387.391 69.1875C387.266 69.375 387.125 69.5781 386.969 69.7969C386.812 70.0156 386.578 70.2031 386.266 70.3594C385.984 70.5469 385.562 70.6406 385 70.6406C384.344 70.6406 383.703 70.5625 383.078 70.4062C382.453 70.2812 381.812 70.2188 381.156 70.2188C380.5 70.2188 379.844 70.3281 379.188 70.5469C378.562 70.7969 377.969 70.9219 377.406 70.9219C377.156 70.9219 376.969 70.8281 376.844 70.6406C376.719 70.4844 376.578 70.4062 376.422 70.4062C375.891 70.4062 375.328 70.5312 374.734 70.7812C374.172 71.0312 373.594 71.1562 373 71.1562C372.688 71.1562 372.375 71.1094 372.062 71.0156C371.781 70.9531 371.484 70.9219 371.172 70.9219C370.641 70.9219 370.109 71.0469 369.578 71.2969C369.047 71.5469 368.391 71.6719 367.609 71.6719C367.328 71.6719 366.703 71.625 365.734 71.5312C364.797 71.4688 363.828 71.3594 362.828 71.2031C361.828 71.0469 360.922 70.8438 360.109 70.5938C359.328 70.375 358.938 70.125 358.938 69.8438C358.938 69.0312 359.078 68.2188 359.359 67.4062C359.672 66.5938 359.828 65.8125 359.828 65.0625V64.9688C359.422 64.9688 359.188 64.75 359.125 64.3125C359.188 64.1875 359.281 64.0938 359.406 64.0312C359.562 63.9375 359.719 63.875 359.875 63.8438C360.031 63.7812 360.172 63.7031 360.297 63.6094C360.422 63.5156 360.484 63.375 360.484 63.1875V63C361.734 63.125 362.953 63.2031 364.141 63.2344C365.359 63.2656 366.625 63.2812 367.938 63.2812C369.156 63.2812 370.5 63.25 371.969 63.1875C373.469 63.0938 374.844 62.8594 376.094 62.4844C377.375 62.1094 378.438 61.5469 379.281 60.7969C380.156 60.0156 380.594 58.9375 380.594 57.5625V57.2344V56.4844C380.438 53.0469 380.266 49.6719 380.078 46.3594C379.922 43.0156 379.844 39.625 379.844 36.1875C379.844 35.2812 379.766 34.4062 379.609 33.5625C379.484 32.6875 379.422 31.8125 379.422 30.9375C379.422 29.8438 379.609 28.75 379.984 27.6562C380.391 26.5625 381.016 25.6406 381.859 24.8906C381.828 24.7031 381.75 24.5781 381.625 24.5156C381.5 24.4219 381.344 24.3594 381.156 24.3281C380.969 24.2969 380.781 24.2656 380.594 24.2344C380.438 24.2031 380.297 24.1562 380.172 24.0938C379.984 24 379.859 23.7812 379.797 23.4375C379.734 23.0938 379.672 22.7188 379.609 22.3125C379.578 21.9062 379.531 21.5156 379.469 21.1406C379.438 20.7344 379.344 20.4219 379.188 20.2031C379.281 19.2969 379.438 18.4063 379.656 17.5312C379.875 16.6562 379.984 15.7656 379.984 14.8594C379.984 14.2031 379.891 13.6875 379.703 13.3125C379.547 12.9375 379.359 12.625 379.141 12.375C378.922 12.125 378.719 11.9062 378.531 11.7188C378.375 11.5 378.297 11.2344 378.297 10.9219C378.297 10.6719 378.375 10.4375 378.531 10.2188L378.156 10.1719C377.844 10.1719 377.609 10.25 377.453 10.4062C377.297 10.5625 377.141 10.7344 376.984 10.9219C376.859 11.1094 376.719 11.2813 376.562 11.4375C376.406 11.5937 376.188 11.6719 375.906 11.6719C375.688 11.6719 375.438 11.625 375.156 11.5312C374.625 11.6875 374.125 11.7656 373.656 11.7656C372.562 11.7656 371.469 11.625 370.375 11.3438C369.312 11.0312 368.234 10.875 367.141 10.875C366.547 10.875 365.969 10.9063 365.406 10.9688C364.844 11 364.281 11.0156 363.719 11.0156C362.906 11.0156 362.094 10.9219 361.281 10.7344C360.469 10.5469 359.75 10.1406 359.125 9.51562V8.95312C359.125 7.29688 359.672 6.04688 360.766 5.20312C361.891 4.35938 363.25 3.9375 364.844 3.9375C365.938 3.9375 367.016 4.07812 368.078 4.35938C369.141 4.64062 370.219 4.78125 371.312 4.78125C371.906 4.78125 372.531 4.71875 373.188 4.59375C373.844 4.46875 374.516 4.32812 375.203 4.17188C375.891 4.01563 376.578 3.875 377.266 3.75C377.984 3.625 378.688 3.5625 379.375 3.5625C380.438 3.5625 381.438 3.79688 382.375 4.26562C383.312 4.70312 384.25 5.125 385.188 5.53125L385.141 5.90625C385.141 6.1875 385.203 6.45313 385.328 6.70312C385.484 6.92188 385.656 7.15625 385.844 7.40625C386.031 7.625 386.188 7.85938 386.312 8.10938C386.469 8.32813 386.547 8.57812 386.547 8.85938C386.547 9.14062 386.5 9.42188 386.406 9.70312C386.344 9.95312 386.312 10.2188 386.312 10.5C386.312 11.1875 386.438 11.8438 386.688 12.4688C386.969 13.0937 387.109 13.7656 387.109 14.4844C387.109 15.2344 387.016 15.9688 386.828 16.6875C386.672 17.4062 386.594 18.1406 386.594 18.8906C386.594 19.7969 386.703 20.7031 386.922 21.6094C387.141 22.5156 387.25 23.4219 387.25 24.3281C387.25 25.0781 387.125 25.8125 386.875 26.5312C386.656 27.25 386.547 27.9688 386.547 28.6875C386.547 29.2188 386.609 29.75 386.734 30.2812C386.891 30.7812 387.062 31.2812 387.25 31.7812C387.438 32.2812 387.594 32.7969 387.719 33.3281C387.875 33.8281 387.953 34.3594 387.953 34.9219V35.8594C387.953 36.3594 387.906 36.8438 387.812 37.3125C387.75 37.75 387.547 38.1719 387.203 38.5781C387.359 39.1719 387.516 39.8125 387.672 40.5C387.859 41.1875 387.953 41.8438 387.953 42.4688C387.953 42.7812 387.922 43.125 387.859 43.5C387.828 43.8438 387.75 44.2031 387.625 44.5781C387.531 44.9219 387.391 45.25 387.203 45.5625C387.016 45.8438 386.797 46.0781 386.547 46.2656C386.953 47.4531 387.219 48.6562 387.344 49.875C387.469 51.0938 387.562 52.3125 387.625 53.5312C387.656 53.9062 387.719 54.3906 387.812 54.9844C387.906 55.5781 388 56.1719 388.094 56.7656C388.188 57.3281 388.266 57.8594 388.328 58.3594C388.422 58.8281 388.469 59.1562 388.469 59.3438C388.469 59.875 388.375 60.3906 388.188 60.8906C388 61.3906 387.906 61.9062 387.906 62.4375C387.906 62.8438 388 63.2812 388.188 63.75C388.375 64.1875 388.719 64.4062 389.219 64.4062C389.594 64.4062 389.906 64.3281 390.156 64.1719C390.438 63.9844 390.734 63.7969 391.047 63.6094C391.359 63.3906 391.719 63.2031 392.125 63.0469C392.562 62.8594 393.141 62.7656 393.859 62.7656C394.672 62.7656 395.438 62.875 396.156 63.0938C396.875 63.3125 397.641 63.4219 398.453 63.4219C399.047 63.4219 399.641 63.375 400.234 63.2812C400.859 63.1562 401.453 63.0312 402.016 62.9062C402.609 62.75 403.203 62.6094 403.797 62.4844C404.391 62.3594 405 62.2969 405.625 62.2969C406.875 62.2969 407.922 62.6562 408.766 63.375C409.641 64.0938 410.078 65.1562 410.078 66.5625ZM383.172 8.20312C383.047 8.07812 382.891 7.95313 382.703 7.82812C382.547 7.70312 382.359 7.64062 382.141 7.64062C381.984 7.64062 381.844 7.71875 381.719 7.875C381.625 8 381.578 8.14063 381.578 8.29688L381.812 8.85938C381.938 8.92187 382.031 8.95312 382.094 8.95312C382.344 8.95312 382.547 8.875 382.703 8.71875C382.891 8.53125 383.047 8.35937 383.172 8.20312ZM385.984 21.2344C385.984 20.9844 385.906 20.7344 385.75 20.4844C385.625 20.2031 385.406 20.0625 385.094 20.0625C385 20.0625 384.891 20.0781 384.766 20.1094C384.672 20.1406 384.594 20.1719 384.531 20.2031V22.2188C384.781 22.3438 384.969 22.4062 385.094 22.4062C385.406 22.4062 385.625 22.2812 385.75 22.0312C385.906 21.75 385.984 21.4844 385.984 21.2344ZM464.219 60.7969C464.219 61.3281 464.125 61.8281 463.938 62.2969C463.75 62.7656 463.578 63.25 463.422 63.75C463.297 64.1875 463.203 64.5469 463.141 64.8281C463.109 65.1094 463.047 65.3594 462.953 65.5781C462.859 65.7656 462.703 65.9531 462.484 66.1406C462.297 66.2969 461.984 66.4844 461.547 66.7031C460.609 67.2031 459.609 67.7188 458.547 68.25C457.516 68.75 456.469 69 455.406 69C454.5 69 453.641 68.7969 452.828 68.3906C452.047 67.9531 451.312 67.4844 450.625 66.9844C449.969 66.4531 449.359 65.9688 448.797 65.5312C448.266 65.0938 447.812 64.875 447.438 64.875C447.031 64.875 446.672 64.9844 446.359 65.2031C446.078 65.4219 445.781 65.6562 445.469 65.9062C445.188 66.1562 444.859 66.3906 444.484 66.6094C444.141 66.8281 443.703 66.9375 443.172 66.9375C442.734 66.9375 442.281 67.0156 441.812 67.1719C441.344 67.3281 440.875 67.5156 440.406 67.7344C439.938 67.9219 439.453 68.125 438.953 68.3438C438.484 68.5312 438.047 68.6875 437.641 68.8125C436.234 69.1875 434.812 69.4062 433.375 69.4688C431.969 69.5312 430.547 69.5625 429.109 69.5625C428.734 69.5625 428.156 69.5469 427.375 69.5156C426.594 69.5156 425.797 69.4375 424.984 69.2812C424.203 69.1562 423.5 68.9375 422.875 68.625C422.281 68.3125 421.984 67.875 421.984 67.3125C421.984 67.1875 422 67.0781 422.031 66.9844C421.812 67.2344 421.562 67.4375 421.281 67.5938C421 67.75 420.688 67.8281 420.344 67.8281C419.844 67.8281 419.234 67.4844 418.516 66.7969C417.797 66.1094 417.109 65.3125 416.453 64.4062C415.797 63.5 415.234 62.6094 414.766 61.7344C414.297 60.8281 414.062 60.1562 414.062 59.7188C414.062 59.375 414.156 59.0625 414.344 58.7812C414.562 58.5 414.672 58.1875 414.672 57.8438C414.672 57.4062 414.609 57 414.484 56.625C414.391 56.2188 414.344 55.7969 414.344 55.3594C414.344 54.7969 414.453 54.2031 414.672 53.5781C414.891 52.9219 415.156 52.2812 415.469 51.6562C415.781 51 416.109 50.375 416.453 49.7812C416.797 49.1562 417.109 48.5781 417.391 48.0469C417.703 47.4219 418.141 46.9219 418.703 46.5469C419.266 46.1719 419.859 45.8438 420.484 45.5625C421.109 45.2812 421.734 45 422.359 44.7188C422.984 44.4375 423.531 44.0625 424 43.5938C424.469 44.125 425.078 44.3906 425.828 44.3906C426.609 44.3906 427.375 44.2812 428.125 44.0625C428.875 43.8125 429.641 43.6875 430.422 43.6875C431.047 43.6875 431.641 43.75 432.203 43.875C432.797 44 433.406 44.0625 434.031 44.0625C434.719 44.0625 435.219 43.9844 435.531 43.8281C435.875 43.6406 436.297 43.3281 436.797 42.8906C437.297 42.4531 437.922 42.125 438.672 41.9062C439.453 41.6562 440.25 41.4688 441.062 41.3438C441.906 41.1875 442.734 41.0312 443.547 40.875C444.391 40.7188 445.141 40.5 445.797 40.2188C446.453 39.9062 446.984 39.5 447.391 39C447.797 38.4688 448 37.75 448 36.8438C448 35.8438 447.703 34.7969 447.109 33.7031C446.547 32.5781 445.812 31.5625 444.906 30.6562C444 29.7188 443 28.9531 441.906 28.3594C440.812 27.7656 439.766 27.4688 438.766 27.4688C438.641 27.4688 438.516 27.4844 438.391 27.5156C438.266 27.5469 438.156 27.5625 438.062 27.5625C437.312 27.6875 436.469 27.7812 435.531 27.8438C434.594 27.875 433.719 28.0156 432.906 28.2656C432.094 28.4844 431.406 28.875 430.844 29.4375C430.281 29.9688 430 30.7656 430 31.8281C430 32.4531 430.047 33.0781 430.141 33.7031C430.266 34.2969 430.328 34.9062 430.328 35.5312C430.328 36.4688 430.094 37.25 429.625 37.875C429.188 38.5 428.609 39 427.891 39.375C427.203 39.75 426.438 40.0156 425.594 40.1719C424.75 40.2969 423.938 40.3594 423.156 40.3594C422.219 40.3594 421.406 40.2344 420.719 39.9844C420.031 39.7344 419.469 39.1562 419.031 38.25C418.688 37.5938 418.312 36.8906 417.906 36.1406C417.531 35.3594 417.344 34.5781 417.344 33.7969C417.344 32.9531 417.484 32.1719 417.766 31.4531C418.078 30.7031 418.422 29.9844 418.797 29.2969C419.172 28.5781 419.531 27.875 419.875 27.1875C420.25 26.4688 420.516 25.7031 420.672 24.8906C420.891 24.7656 421.188 24.6406 421.562 24.5156C421.969 24.3906 422.391 24.2656 422.828 24.1406C423.297 24.0156 423.734 23.9062 424.141 23.8125C424.578 23.6875 424.938 23.5781 425.219 23.4844C425.969 23.2656 426.688 23.0156 427.375 22.7344C428.094 22.4219 428.812 22.1406 429.531 21.8906C430.281 21.6406 431.016 21.4219 431.734 21.2344C432.484 21.0469 433.25 20.9375 434.031 20.9062L435.484 20.8594C436.828 20.8594 438.203 20.9844 439.609 21.2344C441.016 21.4531 442.391 21.8125 443.734 22.3125C445.078 22.8125 446.344 23.4375 447.531 24.1875C448.75 24.9062 449.828 25.7656 450.766 26.7656C451.453 27.5156 452.016 28.4062 452.453 29.4375C452.922 30.4375 453.281 31.5 453.531 32.625C453.812 33.75 454 34.8906 454.094 36.0469C454.219 37.1719 454.281 38.2188 454.281 39.1875C454.281 40.5 454.234 41.7969 454.141 43.0781C454.078 44.3281 454.047 45.6094 454.047 46.9219C454.047 48.1719 454.109 49.4219 454.234 50.6719C454.391 51.8906 454.562 53.125 454.75 54.375C454.938 55.5938 455.094 56.8281 455.219 58.0781C455.375 59.2969 455.453 60.5156 455.453 61.7344C455.516 62.4844 455.609 62.9531 455.734 63.1406C455.891 63.2969 456.047 63.375 456.203 63.375C456.891 63.375 457.438 63.1719 457.844 62.7656C458.281 62.3281 458.672 61.8594 459.016 61.3594C459.359 60.8281 459.734 60.3438 460.141 59.9062C460.547 59.4688 461.062 59.25 461.688 59.25C461.969 59.25 462.25 59.2656 462.531 59.2969C462.844 59.3281 463.125 59.4062 463.375 59.5312C463.625 59.625 463.828 59.7812 463.984 60C464.141 60.1875 464.219 60.4531 464.219 60.7969ZM448.797 49.125C448.797 48.9375 448.781 48.6094 448.75 48.1406C448.75 47.6719 448.719 47.2031 448.656 46.7344C448.594 46.2344 448.484 45.7969 448.328 45.4219C448.203 45.0469 448 44.8594 447.719 44.8594C447.656 44.8594 447.578 44.8906 447.484 44.9531C447.391 44.9844 447.312 45 447.25 45C446.062 45.6562 445.047 46.2031 444.203 46.6406C443.359 47.0469 442.516 47.3906 441.672 47.6719C440.859 47.9219 439.984 48.0938 439.047 48.1875C438.109 48.2812 436.938 48.3281 435.531 48.3281C435.344 48.3281 434.828 48.4062 433.984 48.5625C433.141 48.7188 432.219 48.9062 431.219 49.125C430.219 49.3125 429.281 49.5156 428.406 49.7344C427.531 49.9219 426.984 50.0469 426.766 50.1094C426.359 50.2656 426.062 50.4219 425.875 50.5781C425.719 50.7344 425.594 50.9062 425.5 51.0938C425.406 51.2812 425.312 51.4844 425.219 51.7031C425.125 51.8906 424.953 52.0938 424.703 52.3125C424.391 52.5625 424.047 52.7656 423.672 52.9219C423.328 53.0781 423 53.3125 422.688 53.625C422.219 54.0938 421.781 54.7188 421.375 55.5C420.969 56.25 420.766 56.9688 420.766 57.6562C420.766 58.5 420.984 59.25 421.422 59.9062C421.859 60.5625 422.438 61.125 423.156 61.5938C423.875 62.0625 424.688 62.4688 425.594 62.8125C426.5 63.1562 427.406 63.4219 428.312 63.6094C429.25 63.7969 430.141 63.9375 430.984 64.0312C431.859 64.125 432.609 64.1719 433.234 64.1719C433.984 64.1719 434.875 64.125 435.906 64.0312C436.938 63.9062 437.969 63.7344 439 63.5156C440.031 63.2656 441 62.9375 441.906 62.5312C442.812 62.125 443.531 61.6094 444.062 60.9844C444.281 60.7344 444.438 60.5156 444.531 60.3281C444.625 60.1094 444.719 59.9062 444.812 59.7188C444.938 59.5 445.062 59.2812 445.188 59.0625C445.344 58.8438 445.578 58.6094 445.891 58.3594C446.609 57.7656 447.156 57.1094 447.531 56.3906C447.938 55.6719 448.234 54.9219 448.422 54.1406C448.609 53.3594 448.719 52.5469 448.75 51.7031C448.781 50.8594 448.797 50 448.797 49.125ZM521.875 26.25C521.875 26.625 521.781 27.0312 521.594 27.4688C521.406 27.875 521.156 28.2656 520.844 28.6406C520.562 28.9844 520.234 29.2969 519.859 29.5781C519.484 29.8594 519.125 30.0625 518.781 30.1875C518.219 30.375 517.516 30.5 516.672 30.5625C515.859 30.625 515.062 30.7344 514.281 30.8906C513.531 31.0469 512.875 31.3281 512.312 31.7344C511.781 32.1094 511.516 32.7188 511.516 33.5625C511.516 34.0625 511.484 34.3906 511.422 34.5469C511.359 34.6719 511.203 34.7344 510.953 34.7344C510.891 34.7344 510.797 34.7344 510.672 34.7344C510.578 34.7031 510.469 34.6875 510.344 34.6875L509.922 34.9219C509.484 35.9844 509.219 37.0938 509.125 38.25C509.062 39.4062 508.875 40.5312 508.562 41.625C507.969 41.6562 507.484 41.9375 507.109 42.4688C506.766 43 506.484 43.625 506.266 44.3438C506.078 45.0312 505.906 45.7344 505.75 46.4531C505.625 47.1719 505.484 47.7344 505.328 48.1406C504.359 50.4844 503.359 52.7812 502.328 55.0312C501.328 57.2812 500.25 59.5312 499.094 61.7812C499 61.9688 498.891 62.2812 498.766 62.7188C498.641 63.125 498.5 63.5469 498.344 63.9844C498.188 64.3906 498 64.75 497.781 65.0625C497.594 65.375 497.359 65.5312 497.078 65.5312C496.703 65.375 496.344 65.1875 496 64.9688C495.656 64.7188 495.297 64.5781 494.922 64.5469C494.797 64.5781 494.734 64.6562 494.734 64.7812C494.734 65.125 494.891 65.4062 495.203 65.625C495.547 65.8438 495.906 66.0625 496.281 66.2812C496.688 66.5 497.047 66.7188 497.359 66.9375C497.703 67.1562 497.875 67.4219 497.875 67.7344C497.875 68.0156 497.766 68.3125 497.547 68.625C497.359 68.9375 497.141 69.2656 496.891 69.6094C496.641 69.9844 496.406 70.375 496.188 70.7812C495.969 71.1875 495.844 71.6406 495.812 72.1406C495.75 72.7656 495.562 73.3281 495.25 73.8281C494.969 74.3281 494.641 74.8125 494.266 75.2812C493.922 75.7812 493.594 76.2969 493.281 76.8281C493 77.3906 492.812 78.0156 492.719 78.7031C492.656 79.2344 492.531 79.7656 492.344 80.2969C492.188 80.8594 491.969 81.375 491.688 81.8438C491.406 82.3125 491.062 82.7188 490.656 83.0625C490.25 83.4062 489.766 83.625 489.203 83.7188C489.047 84.6562 488.656 85.5781 488.031 86.4844C487.438 87.3906 486.703 88.1875 485.828 88.875C484.953 89.5938 484.016 90.1562 483.016 90.5625C482.016 91 481.031 91.2188 480.062 91.2188C479.281 91.2188 478.516 91.1094 477.766 90.8906C477.047 90.6719 476.344 90.3906 475.656 90.0469C475.188 89.8281 474.812 89.7031 474.531 89.6719C474.25 89.6406 474 89.6094 473.781 89.5781C473.594 89.5469 473.375 89.4531 473.125 89.2969C472.906 89.1406 472.609 88.8281 472.234 88.3594C471.672 87.6094 471.062 86.9062 470.406 86.25C469.781 85.625 469.141 85 468.484 84.375C468.141 84.0625 467.891 83.6875 467.734 83.25C467.578 82.8125 467.438 82.375 467.312 81.9375C467.188 81.5 467.016 81.0781 466.797 80.6719C466.609 80.2656 466.281 79.9375 465.812 79.6875C465.656 79.5312 465.578 79.25 465.578 78.8438C465.578 78.5625 465.688 77.9844 465.906 77.1094C466.125 76.2344 466.406 75.3281 466.75 74.3906C467.094 73.4844 467.469 72.6562 467.875 71.9062C468.312 71.1875 468.719 70.8281 469.094 70.8281C469.344 70.8281 469.578 70.8594 469.797 70.9219C470.016 71.0156 470.25 71.0625 470.5 71.0625C471.125 71.0625 471.734 70.9062 472.328 70.5938C472.922 70.2812 473.547 70.125 474.203 70.125C474.609 70.125 474.906 70.2344 475.094 70.4531C475.312 70.6719 475.469 70.9219 475.562 71.2031C475.656 71.4844 475.734 71.7344 475.797 71.9531C475.891 72.1719 476.047 72.2812 476.266 72.2812C476.422 72.25 476.562 72.2031 476.688 72.1406C477 72.0156 477.25 71.9531 477.438 71.9531C477.844 71.9531 478.219 72.0469 478.562 72.2344C478.906 72.4531 479.219 72.7188 479.5 73.0312C479.781 73.3438 480.031 73.6719 480.25 74.0156C480.5 74.3906 480.719 74.7344 480.906 75.0469C481 75.2031 481.141 75.3594 481.328 75.5156C481.516 75.7031 481.703 75.8906 481.891 76.0781C482.078 76.2656 482.234 76.4375 482.359 76.5938C482.484 76.7812 482.547 76.9688 482.547 77.1562C482.547 77.5 482.453 77.8125 482.266 78.0938C482.109 78.375 482.031 78.6562 482.031 78.9375C482.031 79.25 482.156 79.4688 482.406 79.5938C482.688 79.7188 482.953 79.7812 483.203 79.7812C483.797 79.7812 484.375 79.5312 484.938 79.0312C485.531 78.5625 486.094 77.9375 486.625 77.1562C487.156 76.375 487.641 75.5 488.078 74.5312C488.547 73.5938 488.953 72.6406 489.297 71.6719C489.641 70.7344 489.906 69.8438 490.094 69C490.281 68.1875 490.375 67.5312 490.375 67.0312C490.375 66.5 490.25 65.7656 490 64.8281C489.75 63.8906 489.422 62.8594 489.016 61.7344C488.609 60.6094 488.156 59.4219 487.656 58.1719C487.156 56.9219 486.656 55.7188 486.156 54.5625C485.688 53.4062 485.25 52.3438 484.844 51.375C484.438 50.375 484.109 49.5625 483.859 48.9375C483.359 47.75 482.906 46.5312 482.5 45.2812C482.125 44.0312 481.688 42.8125 481.188 41.625C480.906 40.9688 480.5 40.2188 479.969 39.375C479.469 38.5 478.953 37.6094 478.422 36.7031C477.922 35.7656 477.469 34.8594 477.062 33.9844C476.688 33.0781 476.5 32.2812 476.5 31.5938C476.25 31.5938 475.969 31.5469 475.656 31.4531C475.375 31.3281 475.094 31.2031 474.812 31.0781C474.531 30.9219 474.25 30.7969 473.969 30.7031C473.719 30.5781 473.484 30.5156 473.266 30.5156C472.609 30.5156 471.938 30.6094 471.25 30.7969C470.562 30.9531 469.875 31.0312 469.188 31.0312C468.812 31.0312 468.375 31 467.875 30.9375C467.375 30.8438 466.891 30.7188 466.422 30.5625C465.984 30.375 465.594 30.125 465.25 29.8125C464.938 29.5 464.781 29.1094 464.781 28.6406C464.781 28.2969 464.828 27.9062 464.922 27.4688C465.016 27.0312 465.141 26.625 465.297 26.25C465.484 25.8438 465.703 25.5156 465.953 25.2656C466.203 24.9844 466.484 24.8438 466.797 24.8438C467.266 24.8438 467.719 25 468.156 25.3125C468.594 25.5938 469.062 25.7344 469.562 25.7344C470.281 25.7344 470.984 25.7031 471.672 25.6406C472.391 25.5781 473.109 25.5469 473.828 25.5469C474.453 25.5469 475.062 25.375 475.656 25.0312C476.281 24.6875 476.859 24.375 477.391 24.0938C477.984 23.7812 478.828 23.5938 479.922 23.5312C481.047 23.4375 482.172 23.3906 483.297 23.3906C483.703 23.3906 484.344 23.375 485.219 23.3438C486.094 23.2812 486.969 23.3125 487.844 23.4375C488.75 23.5625 489.531 23.8438 490.188 24.2812C490.875 24.6875 491.219 25.3438 491.219 26.25C491.219 27.0312 491.047 27.6875 490.703 28.2188C490.391 28.7188 489.984 29.1562 489.484 29.5312C489.016 29.9062 488.484 30.25 487.891 30.5625C487.328 30.8438 486.797 31.1562 486.297 31.5C485.828 31.8125 485.422 32.1875 485.078 32.625C484.766 33.0625 484.609 33.6094 484.609 34.2656C484.609 35.2969 484.906 36.4062 485.5 37.5938C486.094 38.75 486.75 39.9062 487.469 41.0625C488.188 42.1875 488.859 43.2656 489.484 44.2969C490.109 45.3281 490.469 46.2188 490.562 46.9688C490.594 47.375 490.703 47.9531 490.891 48.7031C491.078 49.4531 491.328 50.2031 491.641 50.9531C491.984 51.6719 492.375 52.3125 492.812 52.875C493.281 53.4062 493.781 53.6719 494.312 53.6719C494.688 53.6719 495.016 53.5156 495.297 53.2031C495.578 52.8906 495.828 52.5156 496.047 52.0781C496.266 51.6406 496.438 51.2031 496.562 50.7656C496.719 50.2969 496.844 49.9219 496.938 49.6406C497.219 48.7656 497.469 47.8906 497.688 47.0156C497.938 46.1406 498.328 45.3281 498.859 44.5781C499.297 44.0156 499.641 43.4375 499.891 42.8438C500.141 42.2188 500.406 41.5781 500.688 40.9219C501 40.1406 501.312 39.5312 501.625 39.0938C501.969 38.6562 502.266 38.2188 502.516 37.7812C502.766 37.3438 502.969 36.8125 503.125 36.1875C503.312 35.5625 503.406 34.6562 503.406 33.4688C503.406 32.75 503.25 32.2188 502.938 31.875C502.625 31.5312 502.234 31.2656 501.766 31.0781C501.328 30.8906 500.844 30.7344 500.312 30.6094C499.781 30.4844 499.281 30.2969 498.812 30.0469C498.375 29.7656 498 29.3594 497.688 28.8281C497.375 28.2969 497.219 27.5469 497.219 26.5781C497.219 25.7656 497.469 25.125 497.969 24.6562C498.469 24.1562 499.078 23.7969 499.797 23.5781C500.547 23.3281 501.359 23.1719 502.234 23.1094C503.109 23.0469 503.922 23.0156 504.672 23.0156H506.312C507.688 23.0156 509.031 22.9219 510.344 22.7344C511.688 22.5469 513.031 22.4531 514.375 22.4531C514.781 22.4531 515.375 22.5625 516.156 22.7812C516.938 23 517.719 23.25 518.5 23.5312C519.281 23.8125 519.938 24.0938 520.469 24.375C521.031 24.625 521.297 24.7969 521.266 24.8906C521.266 24.8594 521.359 24.9844 521.547 25.2656C521.766 25.5469 521.875 25.875 521.875 26.25ZM483.203 81.0469L482.5 81H482.219C481.688 81 481.266 81.125 480.953 81.375C480.641 81.6562 480.484 82.0781 480.484 82.6406L480.531 83.0156C480.812 82.9531 481.109 82.8906 481.422 82.8281C481.734 82.7969 482.016 82.7344 482.266 82.6406C482.547 82.5469 482.766 82.4062 482.922 82.2188C483.109 82.0312 483.203 81.7656 483.203 81.4219V81.2344V81.0469Z" fill="white"/>
</svg>

